<svg xmlns="http://www.w3.org/2000/svg" width="115" height="35" viewBox="0 0 115 35">
    <defs>
        <style>
            .cls-1{fill:#f4364c}.cls-2,.cls-4{fill:#fff}.cls-2{font-size:14px;font-family:Nunito-Regular,Nunito}.cls-3{fill:none}
        </style>
    </defs>
    <g id="Elements_Buttons_Badges_App_Store" data-name="Elements / Buttons / Badges / App Store" transform="translate(-1 -3)">
        <g id="Button">
            <rect id="Base" width="115" height="35" class="cls-1" rx="5" transform="translate(1 3)"/>
            <text id="App_Store" class="cls-2" data-name="App Store" transform="translate(38.803 25)">
                <tspan x="0" y="0">App Store</tspan>
            </text>
            <g id="Icons_Flash_Rounded" data-name="Icons / Flash Rounded" transform="translate(14.946 10)">
                <g id="Apple">
                    <path id="Rectangle" d="M0 0h21.891v20.488H0z" class="cls-3"/>
                    <path id="Combined_Shape" d="M1.866 15.508C.349 13.468-.831 9.761.751 7.237a4.411 4.411 0 0 1 3.66-2.056C5.573 5.16 6.65 5.9 7.364 5.9s2.032-.89 3.406-.757a4.277 4.277 0 0 1 3.265 1.626A3.721 3.721 0 0 0 12.108 9.9a3.664 3.664 0 0 0 2.392 3.316 7.987 7.987 0 0 1-1.242 2.33c-.732 1.008-1.5 1.993-2.717 2.011-1.184.025-1.582-.641-2.938-.641s-1.793.623-2.929.666h-.063c-1.131.001-2-1.093-2.745-2.074zM6.708 3.783a3.323 3.323 0 0 1 .937-2.533A4.183 4.183 0 0 1 10.269 0a3.483 3.483 0 0 1-.912 2.63 3.533 3.533 0 0 1-2.474 1.159q-.083 0-.175-.006z" class="cls-4" data-name="Combined Shape" transform="translate(3.568 .472)"/>
                </g>
            </g>
        </g>
    </g>
</svg>
