<svg xmlns="http://www.w3.org/2000/svg" width="14.551" height="11.06" viewBox="0 0 14.551 11.06">
    <defs>
        <style>
            .cls-1{stroke:#2e2e2e;stroke-width:.3px}
        </style>
    </defs>
    <g id="binoculars" transform="translate(.215 .164)">
        <path id="Path_8349" d="M16.64 22.028l-2.224-4.692a1.7 1.7 0 0 0-1.9-1.187 1.773 1.773 0 0 0-1.426 1.772l.014.425a2.253 2.253 0 0 0-2.052 0l.011-.326v-.1a1.773 1.773 0 0 0-1.426-1.773 1.7 1.7 0 0 0-1.9 1.187l-2.219 4.694a3.21 3.21 0 0 0 .1 3.584 2.845 2.845 0 0 0 3.258 1.055 3.07 3.07 0 0 0 2-2.9l.012-.39a1.7 1.7 0 0 1 2.38 0l.012.386a3.072 3.072 0 0 0 2 2.909 2.847 2.847 0 0 0 3.262-1.058 3.212 3.212 0 0 0 .1-3.589zm-4.946-4.109a1.161 1.161 0 0 1 .768-1.112 1.078 1.078 0 0 1 1.24.432v.017l1.758 3.709a2.832 2.832 0 0 0-3.643 1l-.129-3.951zm-4.338-1.165a1.14 1.14 0 0 1 1.108 1.166v.088l-.129 3.959a2.832 2.832 0 0 0-3.643-1l1.758-3.709a.06.06 0 0 0 0-.017 1.091 1.091 0 0 1 .907-.487zM5.947 26.2a2.453 2.453 0 0 1 0-4.9 2.453 2.453 0 0 1 0 4.9zm4.132-3.951a2.258 2.258 0 0 0-1.163.316l.114-3.477a1.687 1.687 0 0 1 2.1 0l.113 3.477a2.268 2.268 0 0 0-1.164-.318zM14.21 26.2a2.453 2.453 0 1 1 2.329-2.449A2.391 2.391 0 0 1 14.21 26.2z" class="cls-1" data-name="Path 8349" transform="translate(-3.02 -16.122)"/>
    </g>
</svg>
