<svg xmlns="http://www.w3.org/2000/svg" width="287.346" height="584.081" viewBox="0 0 287.346 584.081">
    <defs>
        <style>
            .cgr-1,.cls-2{fill:#4f2b01}.cls-2{fill-rule:evenodd}
        </style>
    </defs>
    <g id="Group_3621" data-name="Group 3621" transform="translate(-1133.784 -2017.948)">
        <g id="Group_3620" data-name="Group 3620">
            <g id="Group_3619" data-name="Group 3619">
                <g id="collection-bkg" transform="translate(1133.784 2017.948)">
                    <g id="Group_2866" data-name="Group 2866" transform="translate(-1127.784 -501.948)">
                        <path id="Path_57454" d="M1325.3 275.33a48.664 48.664 0 0 0-50.157-7.106 46.308 46.308 0 0 0-5.357 2.778 55.9 55.9 0 0 0-25.313 19.86c-15.6 21.995-10.7 52.4 9.178 70.069 17.653 15.687 48.257 20.107 65.167 1.791 13.091-7.084 22.092-18.517 25.041-34.835 3.549-19.627-2.859-39.873-18.559-52.557zM1252.239 319a5.632 5.632 0 1 1 5.632-5.632 5.633 5.633 0 0 1-5.632 5.632zm18.418 30.694a5.555 5.555 0 1 0-.009 0zm28.238-61.391a5.644 5.644 0 1 0-.009 0zm15.952 54.036a5.632 5.632 0 1 1 5.633-5.632 5.633 5.633 0 0 1-5.633 5.632z" class="cls-1" data-name="Path 57454" transform="translate(70.319 237.717)"/>
                        <path id="Path_57455" d="M4475.854 1570.615c-5.7-4.332-14.9-2.229-17.706 4.493-2.856 6.845 2.1 15.364 9.546 16.02 4.287.377 9.007-2.081 10.235-6.409a7.573 7.573 0 0 0 .211-1.053 9.373 9.373 0 0 0-2.286-13.051zm-12.924 8.035a2.57 2.57 0 1 1 2.57-2.57 2.57 2.57 0 0 1-2.57 2.57zm7.915 10.365a2.57 2.57 0 1 1 2.57-2.57 2.57 2.57 0 0 1-2.571 2.57zm5.14-11.486a2.57 2.57 0 1 1 2.57-2.57 2.57 2.57 0 0 1-2.571 2.57z" class="cls-2" data-name="Path 57455" transform="translate(-3168.948 -782.402)"/>
                        <path id="Path_57456" d="M335.622 3761.538a10.648 10.648 0 0 0-1.972 5.991c1.723 4.639 3.537 8.287 8.066 9.692 6.439 2 14.265-7.626 13-14.1-.823-4.229-3.3-5.507-6.914-6.873-7.412-2.788-8.989-.16-12.18 5.29zm7.243 5.815l.329 1.058a2.611 2.611 0 0 1-1.152 2.294 3.661 3.661 0 0 1-2.143-.176l-.823-1.41a2.129 2.129 0 0 1 .494-1.586c.334-.66.465-.755 1.317-.881.808-.313 1.413.26 1.979.7zm6.914-8.987l.658 1.234-.329 1.938a3.164 3.164 0 0 1-2.469.7l-1.152-1.233v-1.762l1.482-1.234z" class="cls-2" data-name="Path 57456" transform="translate(865.037 -3232.851)"/>
                        <g id="Vector_Smart_Object" data-name="Vector Smart Object" transform="rotate(-81 1307.313 -247.357)">
                            <g id="Vector_Smart_Object-2" data-name="Vector Smart Object">
                                <path id="Path_99" d="M106.463 1569.987c-.672-7.511-9.331-12.056-16.079-8.995a9.853 9.853 0 0 0-2.954 2.062 4.537 4.537 0 0 1 1.922 2.337c.056.143.1.283.138.423a4.615 4.615 0 0 1 1.74 8.43 4.573 4.573 0 0 1 1.8 2.262 4.345 4.345 0 0 1-1.262 5.146 9.982 9.982 0 0 0 1.152.347c7.038 1.546 14.18-4.846 13.543-12.012zm-10.715-2.033a2.852 2.852 0 1 1 3.7 1.614 2.839 2.839 0 0 1-3.7-1.615z" class="cls-1" data-name="Path 99" transform="translate(-87.43 -1560.026)"/>
                            </g>
                            <path id="Color_Overlay" d="M5.488 21.974a10.134 10.134 0 0 1-1.151-.348A4.345 4.345 0 0 0 5.6 16.48a4.573 4.573 0 0 0-1.8-2.262 4.391 4.391 0 0 0 1.8-5.539 4.351 4.351 0 0 0-3.54-2.891c-.043-.14-.082-.28-.138-.423A4.535 4.535 0 0 0 0 3.028 9.844 9.844 0 0 1 2.955.966C9.7-2.1 18.361 2.449 19.033 9.96c.576 6.436-5.128 12.246-11.4 12.246a10.029 10.029 0 0 1-2.145-.232zm4.45-17.729a2.856 2.856 0 1 0 1.037-.2 2.84 2.84 0 0 0-1.037.2z" class="cls-1" data-name="Color Overlay"/>
                        </g>
                    </g>
                    <g id="Group_2867" data-name="Group 2867" transform="translate(-1084.784 -740.948)">
                        <path id="Path_57348" d="M1244.145 269.3a22.206 22.206 0 0 1 22.887-3.242 21.127 21.127 0 0 1 2.445 1.268 25.508 25.508 0 0 1 11.551 9.063c7.117 10.036 4.882 23.913-4.188 31.974-8.055 7.158-22.021 9.175-29.736.817a21.7 21.7 0 0 1-11.426-15.9c-1.62-8.958 1.304-18.197 8.467-23.98zm33.34 19.927a2.57 2.57 0 1 0-2.57-2.57 2.57 2.57 0 0 0 2.57 2.566zm-8.4 14.006a2.57 2.57 0 1 0-1.816-.751 2.57 2.57 0 0 0 1.816.751zm-12.885-28.018a2.57 2.57 0 1 0-1.816-.751 2.57 2.57 0 0 0 1.816.751zm-7.279 24.658a2.57 2.57 0 1 0-2.57-2.57 2.57 2.57 0 0 0 2.565 2.57z" class="cls-1" data-name="Path 57348" transform="translate(-137.556 615.769)"/>
                        <path id="Path_57357" d="M4461.3 1570.615c5.7-4.332 14.9-2.229 17.706 4.493 2.856 6.845-2.1 15.364-9.546 16.02-4.287.377-9.007-2.081-10.235-6.409a7.573 7.573 0 0 1-.211-1.053 9.373 9.373 0 0 1 2.286-13.051zm12.924 8.035a2.57 2.57 0 1 0-2.57-2.57 2.57 2.57 0 0 0 2.571 2.57zm-7.915 10.365a2.57 2.57 0 1 0-2.57-2.57 2.57 2.57 0 0 0 2.572 2.57zm-5.14-11.486a2.57 2.57 0 1 0-2.57-2.57 2.57 2.57 0 0 0 2.571 2.57z" class="cls-2" data-name="Path 57357" transform="translate(-3223.389 -686.402)"/>
                        <path id="Path_57343" d="M352.884 3761.538a10.648 10.648 0 0 1 1.972 5.991c-1.723 4.639-3.537 8.287-8.066 9.692-6.439 2-14.265-7.626-13-14.1.823-4.229 3.3-5.507 6.914-6.873 7.412-2.788 8.989-.16 12.18 5.29zm-7.243 5.815l-.329 1.058a2.611 2.611 0 0 0 1.152 2.294 3.661 3.661 0 0 0 2.143-.176l.823-1.41a2.129 2.129 0 0 0-.494-1.586c-.334-.66-.465-.755-1.317-.881-.808-.313-1.413.26-1.979.7zm-6.914-8.987l-.658 1.234.329 1.938a3.164 3.164 0 0 0 2.469.7l1.152-1.233v-1.762l-1.482-1.234z" class="cls-2" data-name="Path 57343" transform="translate(948.275 -2629.851)"/>
                        <g id="Vector_Smart_Object-3" data-name="Vector Smart Object" transform="rotate(-99 891.508 -57.506)">
                            <g id="Vector_Smart_Object-4" data-name="Vector Smart Object">
                                <path id="Path_99-2" d="M19.033 12.245C18.361 19.757 9.7 24.3 2.954 21.24A9.853 9.853 0 0 1 0 19.178a4.537 4.537 0 0 0 1.922-2.337c.056-.143.1-.283.138-.423a4.351 4.351 0 0 0 3.54-2.891 4.391 4.391 0 0 0-1.8-5.539 4.573 4.573 0 0 0 1.8-2.262A4.345 4.345 0 0 0 4.336.58 9.982 9.982 0 0 1 5.488.233c7.04-1.545 14.186 4.846 13.545 12.012zM8.318 14.279a2.852 2.852 0 1 0 3.7-1.614 2.839 2.839 0 0 0-3.7 1.614z" class="cls-1" data-name="Path 99"/>
                            </g>
                            <path id="Color_Overlay-2" d="M5.488.233A10.134 10.134 0 0 0 4.336.58 4.345 4.345 0 0 1 5.6 5.726a4.573 4.573 0 0 1-1.8 2.263 4.391 4.391 0 0 1 1.8 5.538 4.351 4.351 0 0 1-3.54 2.891c-.043.14-.082.28-.138.423A4.535 4.535 0 0 1 0 19.178a9.844 9.844 0 0 0 2.955 2.062c6.745 3.06 15.406-1.483 16.078-8.994C19.609 5.81 13.905 0 7.637 0a10.029 10.029 0 0 0-2.149.233zm4.45 17.729a2.856 2.856 0 1 1 1.037.2 2.84 2.84 0 0 1-1.037-.201z" class="cls-1" data-name="Color Overlay"/>
                        </g>
                    </g>
                </g>
            </g>
        </g>
    </g>
</svg>
