<svg xmlns="http://www.w3.org/2000/svg" width="14.42" height="9.788" viewBox="0 0 14.42 9.788">
    <defs>
        <style>
            .cls-1{fill:#2e2e2e;stroke:#2e2e2e;stroke-width:.3px}
        </style>
    </defs>
    <g id="film" transform="translate(.15 .15)">
        <path id="Path_8346" d="M13.216 27.888h-9.48A.737.737 0 0 1 3 27.153v-8.017a.737.737 0 0 1 .736-.736h9.481a.737.737 0 0 1 .743.736V20.7l2.174-.779a.751.751 0 0 1 .676.089.725.725 0 0 1 .311.6v5.067a.727.727 0 0 1-.311.6.751.751 0 0 1-.676.089l-2.174-.776v1.561a.737.737 0 0 1-.743.736zM3.736 19a.138.138 0 0 0-.135.135v8.017a.138.138 0 0 0 .135.135h9.481a.138.138 0 0 0 .135-.135v-1.987a.3.3 0 0 1 .128-.246.308.308 0 0 1 .275-.038l2.576.925a.132.132 0 0 0 .182-.128v-5.064a.132.132 0 0 0-.056-.113.141.141 0 0 0-.128-.015l-2.575.925a.308.308 0 0 1-.275-.038.3.3 0 0 1-.12-.246v-1.991a.138.138 0 0 0-.135-.136z" class="cls-1" data-name="Path 8346" transform="translate(-3 -18.4)"/>
    </g>
</svg>
