<svg xmlns="http://www.w3.org/2000/svg" width="15.104" height="15.11" viewBox="0 0 15.104 15.11">
    <defs>
        <style>
            .cls-1{stroke:#2e2e2e;stroke-width:.3px}
        </style>
    </defs>
    <g id="gear" transform="translate(.15 .15)">
        <path id="Path_8348" d="M11.236 17.81H9.641a.517.517 0 0 1-.435-.328L8.836 16l-.288-.1a5.514 5.514 0 0 1-.63-.258l-.276-.134-1.394.835-.017.009a.432.432 0 0 1-.2.041.49.49 0 0 1-.334-.121l-1.13-1.128a.518.518 0 0 1-.065-.551l.83-1.393-.132-.274a5.829 5.829 0 0 1-.26-.63L4.842 12l-1.47-.364h-.017a.5.5 0 0 1-.315-.433v-1.6a.5.5 0 0 1 .348-.438L4.85 8.8l.093-.288a5.614 5.614 0 0 1 .26-.63l.134-.279L4.5 6.212a.5.5 0 0 1 .057-.534L5.7 4.539a.5.5 0 0 1 .329-.121.589.589 0 0 1 .115.011.34.34 0 0 1 .1.038l1.4.838.284-.135a5.83 5.83 0 0 1 .63-.26l.291-.1.358-1.47A.5.5 0 0 1 9.641 3h1.594a.517.517 0 0 1 .435.328l.37 1.481.291.1a5.514 5.514 0 0 1 .63.258l.276.134 1.394-.835.017-.009a.432.432 0 0 1 .2-.041.49.49 0 0 1 .334.121l1.13 1.128a.518.518 0 0 1 .065.551l-.833 1.39.129.276a5.412 5.412 0 0 1 .258.63l.1.295 1.472.367a.282.282 0 0 1 .095.041.507.507 0 0 1 .244.391V11.2a.517.517 0 0 1-.328.435l-1.481.37-.1.288a5.514 5.514 0 0 1-.258.63l-.134.276.835 1.394a.5.5 0 0 1-.057.536l-1.139 1.139a.539.539 0 0 1-.429.11.293.293 0 0 1-.12-.041l-1.394-.837-.277.139a5.829 5.829 0 0 1-.63.26l-.291.1-.367 1.47a.5.5 0 0 1-.436.341zm-1.456-.63h1.32l.373-1.5a.315.315 0 0 1 .2-.222l.452-.158a5 5 0 0 0 .559-.23l.432-.208a.315.315 0 0 1 .3.013l1.418.852.93-.93-.851-1.418a.315.315 0 0 1-.013-.3l.208-.43a5.094 5.094 0 0 0 .23-.558l.158-.454a.315.315 0 0 1 .222-.2l1.5-.375V9.746l-1.5-.373a.315.315 0 0 1-.221-.2l-.158-.455a5.011 5.011 0 0 0-.23-.555l-.209-.436a.315.315 0 0 1 .013-.3l.851-1.418-.93-.928-1.418.851a.315.315 0 0 1-.3.013l-.43-.208a5.094 5.094 0 0 0-.558-.23l-.454-.158a.315.315 0 0 1-.2-.222L11.1 3.63H9.78l-.373 1.5a.315.315 0 0 1-.2.222l-.452.158a5 5 0 0 0-.559.23l-.432.208a.315.315 0 0 1-.3-.013L6.043 5.08l-.928.93.851 1.418a.315.315 0 0 1 .013.3l-.208.432a5.061 5.061 0 0 0-.23.558l-.158.454a.315.315 0 0 1-.221.2l-1.5.373v1.316l1.5.373a.315.315 0 0 1 .222.2l.158.452a5 5 0 0 0 .23.559l.208.432a.315.315 0 0 1-.013.3L5.115 14.8l.93.928 1.418-.851a.315.315 0 0 1 .3-.013l.43.208a5.094 5.094 0 0 0 .558.23l.454.158a.315.315 0 0 1 .2.222zm-3.611-1.324zm0 0zm8.566-.027zm1.1-.914a.043.043 0 0 0 .009.016zm-10.786 0zm12.26-5.14a.4.4 0 0 0 .06.017.315.315 0 0 1-.052-.014zm-13.768 0h-.016zM15.83 5.883zM5.027 5.867zm0 0zm1.114-.892zm8.559-.023zm0 0zm-4.265 8.427a2.975 2.975 0 1 1 2.978-2.979 2.975 2.975 0 0 1-2.975 2.975zm0-5.319a2.344 2.344 0 1 0 2.348 2.34 2.344 2.344 0 0 0-2.344-2.344z" class="cls-1" data-name="Path 8348" transform="translate(-3.04 -3)"/>
    </g>
</svg>
