<svg xmlns="http://www.w3.org/2000/svg" width="51.251" height="51.251" viewBox="0 0 51.251 51.251">
    <defs>
        <style>
            .cls-1{stroke:#fff;stroke-width:.4px}.cls-2{fill:#4698ca}
        </style>
    </defs>
    <g id="Group_1898" data-name="Group 1898" transform="translate(-719.717 -1179.178)">
        <path id="Path_8267" d="M31.925 77.158a1.015 1.015 0 0 0 0 1.436l4.375 4.378a1.015 1.015 0 0 0 1.436 0L48.908 71.8A14.261 14.261 0 0 0 28.74 51.636L17.572 62.805a1.015 1.015 0 0 0 0 1.436l4.378 4.378a1.015 1.015 0 0 0 1.436 0l10.845-10.844a6.037 6.037 0 0 1 8.538 8.538zm5.1 3.66l-2.942-2.942 2.637-2.637 2.942 2.942zM22.668 66.465l-2.942-2.942L22.35 60.9l2.942 2.942zm23.9-4.422a8.068 8.068 0 0 0-13.773-5.7l-6.067 6.066-2.943-2.943 6.391-6.391a12.23 12.23 0 0 1 17.3 17.3l-6.379 6.378-2.946-2.953 6.049-6.052a8.011 8.011 0 0 0 2.368-5.704z" class="cls-1" data-name="Path 8267" transform="rotate(-135 626.226 487.998)"/>
        <g id="Group_1603" data-name="Group 1603" transform="rotate(-135 634.192 451.455)">
            <path id="Path_8278" d="M16.923 84.175a1.012 1.012 0 0 0 .718-.3l4.489-4.489a1.015 1.015 0 1 0-1.436-1.436L16.2 82.442a1.015 1.015 0 0 0 .718 1.733z" class="cls-2" data-name="Path 8278" transform="translate(-9.941 -70.073)"/>
            <path id="Path_8279" d="M27.809 82.746l-1.643 6.131a1.015 1.015 0 1 0 1.961.526l1.643-6.131a1.015 1.015 0 1 0-1.961-.526z" class="cls-2" data-name="Path 8279" transform="translate(-9.783 -70.006)"/>
            <path id="Path_8280" d="M11.046 73.862a1.01 1.01 0 0 0 .264-.035l6.132-1.643a1.015 1.015 0 0 0-.526-1.961l-6.132 1.643a1.015 1.015 0 0 0 .262 2z" class="cls-2" data-name="Path 8280" transform="translate(-10.031 -70.188)"/>
        </g>
    </g>
</svg>
