<svg xmlns="http://www.w3.org/2000/svg" width="51.981" height="46" viewBox="0 0 51.981 46">
    <defs>
        <style>
            .cls-1{fill:#f4364c}.cls-2{fill:#2e2e2e}
        </style>
    </defs>
    <g id="Group_1693" data-name="Group 1693" transform="translate(-4048 853)">
        <path id="Path_8188" d="M29.764 981.978a1.18 1.18 0 0 1 1.032.83l5.53 17.679L39.5 987.8a1.18 1.18 0 0 1 2.231-.2l2.765 6.083h3.444a1.18 1.18 0 1 1 0 2.36h-4.2a1.18 1.18 0 0 1-1.069-.682l-1.7-3.705-3.371 13.494a1.18 1.18 0 0 1-2.286.055l-5.549-17.79-2.249 8.48a1.18 1.18 0 0 1-1.143.866H10.112a1.18 1.18 0 1 1 0-2.36h15.356l3.06-11.54a1.18 1.18 0 0 1 1.235-.885z" class="cls-1" data-name="Path 8188" transform="translate(4040.832 -1824.001)"/>
        <path id="Path_8189" d="M49.571 964.645c5.786 2.475 9.862 8.539 7.816 15.8-2.879 10.915-16.368 21.47-24.555 28.555a1.189 1.189 0 0 1-1.7.037c-7.6-6.567-13.654-12.13-17.974-17.329a1.178 1.178 0 1 1 1.807-1.512c4.02 4.838 9.771 10.16 17 16.425 12.714-11.005 20.707-19.06 23.154-26.859 1.716-6.155-1.563-10.842-6.471-12.941a13.424 13.424 0 0 0-15.522 3.539 1.472 1.472 0 0 1-2.286.055 13.368 13.368 0 0 0-15.522-3.595c-4.914 2.1-8.21 6.8-6.471 12.978a24.653 24.653 0 0 0 1.77 4.111 1.18 1.18 0 1 1-2.065 1.125 27.213 27.213 0 0 1-1.973-4.553c-2.478-8.685 2.691-13.46 7.8-15.835a16.084 16.084 0 0 1 7.06-1.254 15.693 15.693 0 0 1 10.526 4.775 15.777 15.777 0 0 1 10.563-4.775 18.306 18.306 0 0 1 7.042 1.254z" class="cls-2" data-name="Path 8189" transform="translate(4042.059 -1816.373)"/>
    </g>
</svg>
