<svg xmlns="http://www.w3.org/2000/svg" width="34.608" height="44.298" viewBox="0 0 34.608 44.298">
    <defs>
        <style>
            .cls-1{fill:#4698ca}.cls-2{fill:#2e2e2e}
        </style>
    </defs>
    <g id="Group_1900" data-name="Group 1900" transform="translate(-1007.935 -1277)">
        <path id="Path_8274" d="M36.843 12H24.384A1.388 1.388 0 0 0 23 13.384v4.845a1.388 1.388 0 0 0 1.384 1.384h12.459a1.388 1.388 0 0 0 1.384-1.384v-4.845A1.388 1.388 0 0 0 36.843 12zm0 5.537a.654.654 0 0 1-.692.692H25.076a.654.654 0 0 1-.692-.692v-3.461a.654.654 0 0 1 .692-.692h11.075a.654.654 0 0 1 .692.692z" class="cls-1" data-name="Path 8274" transform="translate(996.402 1273.306)"/>
        <path id="Path_8275" d="M38.839 0H9.769A2.777 2.777 0 0 0 7 2.769v33.915a2.777 2.777 0 0 0 2.769 2.769h2.076a.692.692 0 1 0 0-1.384H9.769a1.388 1.388 0 0 1-1.384-1.384V35.3h31.839v1.384a1.388 1.388 0 0 1-1.384 1.384H20.151a.692.692 0 1 0 0 1.384h18.688a2.777 2.777 0 0 0 2.769-2.769V2.769A2.777 2.777 0 0 0 38.839 0zM8.384 33.916V2.769a1.388 1.388 0 0 1 1.385-1.385h29.07a1.388 1.388 0 0 1 1.384 1.384v31.148z" class="cls-2" data-name="Path 8275" transform="translate(1000.935 1277)"/>
        <path id="Path_8276" d="M20.461 53a.654.654 0 0 0-.692.692v4.845a.692.692 0 0 1-1.384 0v-4.845a.692.692 0 1 0-1.384 0v5.537a1.388 1.388 0 0 0 1.384 1.384h1.384a1.388 1.388 0 0 0 1.384-1.384v-5.537a.654.654 0 0 0-.692-.692z" class="cls-1" data-name="Path 8276" transform="translate(998.249 1260.684)"/>
        <path id="Path_8277" d="M11.692 4a.654.654 0 0 0-.692.692v28.379a.692.692 0 0 0 1.384 0V4.692A.654.654 0 0 0 11.692 4z" class="cls-2" data-name="Path 8277" transform="translate(1000.096 1275.769)"/>
    </g>
</svg>
