<svg xmlns="http://www.w3.org/2000/svg" width="35.527" height="55" viewBox="0 0 35.527 55">
    <defs>
        <style>
            .cls-1{fill:#2e2e2e}.cls-2{fill:#f4364c}
        </style>
    </defs>
    <g id="Group_1691" data-name="Group 1691" transform="translate(-4265 783)">
        <path id="Path_8199" d="M35.247 9.876a2.628 2.628 0 0 1 1.932-.708 2.892 2.892 0 0 1 2.254.773 2.451 2.451 0 0 1 .515 1.095 7.465 7.465 0 0 1 1.674-.966 3.645 3.645 0 0 0-.773-1.352 4.758 4.758 0 0 0-3.67-1.418 4.216 4.216 0 0 0-3.22 1.288 4.738 4.738 0 0 0-1.159 2.254 7.48 7.48 0 0 1 1.739.9 2.542 2.542 0 0 1 .708-1.866z" class="cls-1" data-name="Path 8199" transform="translate(4240.379 -790.3)"/>
        <path id="Path_8200" d="M54.749 42.123a4.12 4.12 0 0 0-2.7-1.546c-.258 0-.451-.064-.708-.064a5.005 5.005 0 0 0-1.03.129l.193-2.061a5.06 5.06 0 0 0-.644-3.542 4.472 4.472 0 0 0-3.484-1.739h-.515a4.251 4.251 0 0 0-2.7.9 4.4 4.4 0 0 0-1.03-2.834 4.7 4.7 0 0 0-3.671-1.481 5.776 5.776 0 0 0-1.159.129v-2.06a5.622 5.622 0 0 0-1.873-2.254v5.281l-.193.193a5.679 5.679 0 0 0-1.352 3.735v.451l-3.929.837V26.73a7.007 7.007 0 0 0-1.159 2.061 1.821 1.821 0 0 1-.708.966V36.2c0 .129 0 .193.064.258h-.064C22.676 37.1 20.1 40.835 20.1 47.79v.129a41.111 41.111 0 0 0 1.674 7.471c1.481 3.8 3.8 8.823 7.664 9.982v2.383a.9.9 0 1 0 1.8 0v-3.091a.942.942 0 0 0-.773-.9c-2.512-.386-4.83-3.349-6.956-8.952a49.039 49.039 0 0 1-1.61-6.956c0-5.989 2-8.952 6.44-9.467h.064l5.474-1.159.966-.193.9-.193 2.19-.451a.5.5 0 0 1 .644.451c.644 2.963-.193 4.766-2.447 5.41a.2.2 0 0 0-.129.064l-.322.129-.9.386-.966.386-4.444 1.739a1 1 0 0 0-.58 1.095.85.85 0 0 0 .9.708h.064c.064 0 2.125.064 3.542 4.251a.95.95 0 0 0 .644.58 1.386 1.386 0 0 0 .515 0 .939.939 0 0 0 .58-1.159 9.583 9.583 0 0 0-2.9-4.573l1.739-.644a6.063 6.063 0 0 0 1.288 3.027 4.464 4.464 0 0 0 3.285 1.288 5.116 5.116 0 0 0 2.061-.386 4.732 4.732 0 0 0 .9 2.125 4.217 4.217 0 0 0 3.156 1.61h.58a4.874 4.874 0 0 0 .966-.064 4.522 4.522 0 0 0 .773 2.061 3.743 3.743 0 0 0 2.769 1.61 3.136 3.136 0 0 0 .773.064h.451a2.273 2.273 0 0 0 .9-.193 5.894 5.894 0 0 1-.064 1.03 6.9 6.9 0 0 1-2.311 4.12 13.957 13.957 0 0 1-2.383 1.739.863.863 0 0 0-.515.837v3.864a.936.936 0 0 0 .966.9.88.88 0 0 0 .9-.9v-3.027l.129-.386c2.383-1.417 4.895-3.993 5.088-7.084a15.47 15.47 0 0 0 0-2.447 5.613 5.613 0 0 0 1.095-2.834l.9-5.925a6.468 6.468 0 0 0-.831-4.122zm-13.525-7.471v3.929l-.773 8.244a2.453 2.453 0 0 1-2 .708 2.628 2.628 0 0 1-1.932-.708 3.956 3.956 0 0 1-.837-2.447l.966-.386c3.22-.9 4.573-3.607 3.735-7.535a2.415 2.415 0 0 0-2.834-1.868l-.258.064-1.61.258a3.959 3.959 0 0 1 .837-2.383 1.667 1.667 0 0 1 .708-.451 3.12 3.12 0 0 1 1.159-.193 2.892 2.892 0 0 1 2.254.773 2.8 2.8 0 0 1 .585 1.995zm5.732 10.24l-.837 5.474a1.31 1.31 0 0 0-.064.322 2.353 2.353 0 0 1-.966.193H44.7a2.817 2.817 0 0 1-1.868-.837 3.881 3.881 0 0 1-.642-2.444v-.322l.773-8.5.064-.644c0-.322.258-2.834 2.641-2.834h.386a2.771 2.771 0 0 1 2.125.966 3.006 3.006 0 0 1 .386 2.125v.129l-.322 3.478a5.786 5.786 0 0 0-1.287 2.894zm6.762.9l-.773 5.152-.129.773v.064a3.857 3.857 0 0 1-.322 1.159 3.54 3.54 0 0 1-.837 1.159v-.386l-.193.515a2 2 0 0 1-1.095.322 1.418 1.418 0 0 1-.515-.064 2.128 2.128 0 0 1-1.481-.837 3.643 3.643 0 0 1-.515-1.8 5.227 5.227 0 0 1 .064-1.095v-.064l.064-.515.773-5.023a3.992 3.992 0 0 1 .193-.708 3.605 3.605 0 0 1 1.095-1.61 1.857 1.857 0 0 1 1.224-.386h.451a1.981 1.981 0 0 1 1.481.773 3.779 3.779 0 0 1 .515 2.573z" class="cls-1" data-name="Path 8200" transform="translate(4244.9 -796.85)"/>
        <path id="Path_8201" d="M42.413 16.235a2.671 2.671 0 0 0 0-2.447 1.644 1.644 0 0 0-.451-.644l-.129-.129-.129-.129c-.064-.064-.193-.129-.258-.193s-.193-.064-.258-.129a.817.817 0 0 0-.388-.064h-.451a3.323 3.323 0 0 0-.708.129 5.685 5.685 0 0 0-1.8 1.159 19.807 19.807 0 0 0-2.769 3.156 4.918 4.918 0 0 0-.58-.58l-.322-.322a14.188 14.188 0 0 0-1.8-1.546h-.07a6.457 6.457 0 0 0-1.8-1.03 2.987 2.987 0 0 0-1.224-.258h-.129a2.054 2.054 0 0 0-1.868 1.481 2.384 2.384 0 0 0 .258 2.447 5.874 5.874 0 0 0 2.963 1.74c.386.129.773.193 1.03.258-.386.386-.708.773-1.03 1.159a9.612 9.612 0 0 0-1.739 3.22.857.857 0 0 0 .644 1.095h.322a.889.889 0 0 0 .837-.644 7.252 7.252 0 0 1 1.868-3.027 7.051 7.051 0 0 1 .708-.644l4.508-.322c.064.064.193.129.258.193a6.15 6.15 0 0 1 1.867 1.736 4.266 4.266 0 0 1 .708 1.288.917.917 0 0 0 .837.58.483.483 0 0 0 .322-.064.9.9 0 0 0 .515-1.159A10.391 10.391 0 0 0 39.773 19c-.193-.193-.386-.322-.58-.515a1.981 1.981 0 0 0 .58-.258 8.181 8.181 0 0 0 2.64-1.992zm-10.047 1.03a15.843 15.843 0 0 1-1.868-.451 3.44 3.44 0 0 1-1.481-.837c-.129-.129-.193-.322 0-.773.129-.322.193-.322.258-.322h.064a.7.7 0 0 1 .322.064.915.915 0 0 1 .386.129 3.824 3.824 0 0 0 .515.258 11 11 0 0 1 1.868 1.417 4.166 4.166 0 0 0 .58.515 1.092 1.092 0 0 1-.644.001zm5.474-.322l-.58.193a6.844 6.844 0 0 1 .58-.708 8.885 8.885 0 0 1 1.868-1.739 1.357 1.357 0 0 1 .708-.322h.064l.064.064c0 .064.064.064.064.129a.841.841 0 0 1 .064.773 2.42 2.42 0 0 1-1.03.9 8.09 8.09 0 0 1-1.801.711z" class="cls-2" data-name="Path 8201" transform="translate(4242.423 -792.151)"/>
    </g>
</svg>
