<svg xmlns="http://www.w3.org/2000/svg" width="48.601" height="41.722" viewBox="0 0 48.601 41.722">
    <defs>
        <style>
            .cls-1{fill:#2e2e2e;stroke:#f7f9fa}.cls-2{fill:#f4364c}
        </style>
    </defs>
    <g id="Group_1692" data-name="Group 1692" transform="translate(-4264.495 857)">
        <path id="Path_8191" d="M20.272 61.486a1.285 1.285 0 0 0 1.756.472l8.709-5.022L47.045 58.2h.1a1.286 1.286 0 0 0 1.114-1.929L31.31 26.883a1.286 1.286 0 0 0-2.274.086l-7.074 14.747-8.709 5.022a1.286 1.286 0 0 0-.472 1.756zM30.3 30.281l14.512 25.165-13.6-1.054L24.4 42.576zm-7.822 14.107l3.1 5.382 3.1 5.382-6.826 3.936-6.201-10.764z" class="cls-1" data-name="Path 8191" transform="translate(4252.391 -877.908)"/>
        <path id="Path_8192" d="M60.406 49.543a1.284 1.284 0 0 0 1.578-.9 8.777 8.777 0 0 0-6.2-10.763 1.286 1.286 0 1 0-.667 2.484 6.2 6.2 0 0 1 4.383 7.601 1.286 1.286 0 0 0 .906 1.578z" class="cls-2" data-name="Path 8192" transform="translate(4237.557 -882.046)"/>
        <path id="Path_8193" d="M66.7 46.175a1.286 1.286 0 1 0 2.485.664A15.274 15.274 0 0 0 58.4 28.129a1.286 1.286 0 0 0-.67 2.484 12.7 12.7 0 0 1 8.97 15.562z" class="cls-2" data-name="Path 8193" transform="translate(4236.625 -878.567)"/>
        <path id="Path_8194" d="M74.488 28.259a21.855 21.855 0 0 0-13.37-10.266 1.286 1.286 0 1 0-.665 2.485A19.439 19.439 0 0 1 74.192 44.3a1.286 1.286 0 1 0 2.484.669 21.856 21.856 0 0 0-2.188-16.71z" class="cls-2" data-name="Path 8194" transform="translate(4235.654 -874.949)"/>
    </g>
</svg>
