<svg xmlns="http://www.w3.org/2000/svg" width="34.562" height="33.872" viewBox="0 0 34.562 33.872">
    <defs>
        <style>
            .cls-1,.cls-2{fill:#2e2e2e;stroke:#fff}.cls-2{fill:#4698ca}
        </style>
    </defs>
    <g id="Group_1596" data-name="Group 1596" transform="translate(-20.533 .5)">
        <path id="Path_8272" d="M55.83 21.4H24.8a1.276 1.276 0 0 0-1.264 1.264c.233 2.623-.014 28.295 0 30.343a1.276 1.276 0 0 0 1.264 1.265h31.03a1.276 1.276 0 0 0 1.264-1.264V22.664A1.276 1.276 0 0 0 55.83 21.4zm-1.264 30.4h-28.5V23.871h28.5z" class="cls-1" data-name="Path 8272" transform="translate(-2.5 -21.4)"/>
        <path id="Path_8273" d="M53.7 50.617a1.267 1.267 0 0 0 .862.345 1.17 1.17 0 0 0 .862-.345 1.217 1.217 0 0 0 0-1.782l-3.62-3.62 3.62-3.62a1.26 1.26 0 0 0-1.782-1.782l-4.425 4.54a1.217 1.217 0 0 0 0 1.782z" class="cls-2" data-name="Path 8273" transform="translate(-22.203 -29.066)"/>
        <path id="Path_8274" d="M75.87 50.574a1.267 1.267 0 0 0 .862.345 1.17 1.17 0 0 0 .862-.345l4.54-4.54a1.217 1.217 0 0 0 0-1.782l-4.54-4.54a1.26 1.26 0 0 0-1.782 1.782l3.62 3.62-3.62 3.62a1.334 1.334 0 0 0 .058 1.84z" class="cls-2" data-name="Path 8274" transform="translate(-33.516 -29.024)"/>
        <path id="Path_8275" d="M64.49 51.985c.115 0 .172.057.287.057a1.23 1.23 0 0 0 1.207-.977l2.988-12.7a1.241 1.241 0 0 0-2.414-.575l-2.988 12.7a1.235 1.235 0 0 0 .92 1.495z" class="cls-2" data-name="Path 8275" transform="translate(-28.458 -27.963)"/>
    </g>
</svg>
