<svg xmlns="http://www.w3.org/2000/svg" width="35.454" height="39.372" viewBox="0 0 35.454 39.372">
    <defs>
        <style>
            .cls-1,.cls-2{fill:#2e2e2e;stroke:#fff;stroke-width:.5px}.cls-2{fill:#4698ca}
        </style>
    </defs>
    <g id="Group_1644" data-name="Group 1644" transform="translate(-1911.25 -582.75)">
        <path id="Path_8268" d="M28.417 15.767h-3.534a.883.883 0 1 1 0-1.767h3.534a.883.883 0 1 1 0 1.767z" class="cls-1" data-name="Path 8268" transform="translate(1897.718 572.534)"/>
        <path id="Path_8269" d="M34.2 10H16.534A3.537 3.537 0 0 0 13 13.534v31.8a3.537 3.537 0 0 0 3.534 3.534H34.2a3.537 3.537 0 0 0 3.534-3.534v-5.3a.883.883 0 0 0-1.767 0h-21.2v-21.2h21.2a.883.883 0 1 0 1.767 0v-5.3A3.537 3.537 0 0 0 34.2 10zm1.77 31.8v3.534A1.768 1.768 0 0 1 34.2 47.1H16.534a1.768 1.768 0 0 1-1.767-1.767V41.8zm-21.2-24.737v-3.529a1.769 1.769 0 0 1 1.767-1.767H34.2a1.768 1.768 0 0 1 1.767 1.767v3.534z" class="cls-1" data-name="Path 8269" transform="translate(1898.5 573)"/>
        <path id="Path_8270" d="M46.552 38.9H30.65A2.654 2.654 0 0 1 28 36.252V25.65A2.654 2.654 0 0 1 30.65 23h15.9a2.654 2.654 0 0 1 2.65 2.65v10.6a2.654 2.654 0 0 1-2.648 2.65zM30.65 24.767a.885.885 0 0 0-.883.883v10.6a.884.884 0 0 0 .883.883h15.9a.884.884 0 0 0 .883-.883v-10.6a.884.884 0 0 0-.883-.883z" class="cls-2" data-name="Path 8270" transform="translate(1897.252 571.485)"/>
        <path id="Path_8271" d="M39.3 36.6a5.3 5.3 0 1 1 5.3-5.3 5.306 5.306 0 0 1-5.3 5.3zm0-8.834a3.534 3.534 0 1 0 3.534 3.534 3.537 3.537 0 0 0-3.534-3.533z" class="cls-1" data-name="Path 8271" transform="translate(1896.552 571.135)"/>
        <path id="Path_8272" d="M41.65 32.534a.883.883 0 0 1-.883-.883.884.884 0 0 0-.883-.883.883.883 0 1 1 0-1.767 2.654 2.654 0 0 1 2.65 2.65.883.883 0 0 1-.884.883z" class="cls-1" data-name="Path 8272" transform="translate(1895.97 570.786)"/>
        <path id="Path_8273" d="M47.767 27.767h-.883a.883.883 0 1 1 0-1.767h.883a.883.883 0 1 1 0 1.767z" class="cls-2" data-name="Path 8273" transform="translate(1895.154 571.135)"/>
    </g>
</svg>
