<svg xmlns="http://www.w3.org/2000/svg" width="50.647" height="52.5" viewBox="0 0 50.647 52.5">
    <defs>
        <style>
            .cls-1{fill:#f4364c}.cls-2{fill:#2e2e2e}
        </style>
    </defs>
    <g id="Group_1694" data-name="Group 1694" transform="translate(-4048 785)">
        <g id="noun_Light_1299659" transform="translate(4039 -791)">
            <path id="Path_8202" d="M84.412 45h-6.177a1.235 1.235 0 0 0 0 2.471h6.176a1.235 1.235 0 1 0 0-2.471z" class="cls-1" data-name="Path 8202" transform="translate(-26 -14.912)"/>
            <path id="Path_8203" d="M16.412 45h-6.177a1.235 1.235 0 1 0 0 2.471h6.176a1.235 1.235 0 0 0 0-2.471z" class="cls-1" data-name="Path 8203" transform="translate(0 -14.912)"/>
            <path id="Path_8204" d="M48 7.235v5.929a1.235 1.235 0 1 0 2.471 0V7.235a1.235 1.235 0 0 0-2.471 0z" class="cls-1" data-name="Path 8204" transform="translate(-14.912)"/>
            <path id="Path_8205" d="M72.971 17.671l-4.2 4.2a1.194 1.194 0 0 0 0 1.729 1.194 1.194 0 0 0 1.729 0l4.2-4.2a1.223 1.223 0 1 0-1.729-1.729z" class="cls-1" data-name="Path 8205" transform="translate(-22.712 -4.321)"/>
            <path id="Path_8206" d="M21.071 17.671a1.194 1.194 0 0 0 0 1.729l4.2 4.2a1.194 1.194 0 0 0 1.729 0 1.194 1.194 0 0 0 0-1.729l-4.2-4.2a1.194 1.194 0 0 0-1.729 0z" class="cls-1" data-name="Path 8206" transform="translate(-4.474 -4.321)"/>
            <path id="Path_8207" d="M40.824 23A14.867 14.867 0 0 0 26 37.824a14.561 14.561 0 0 0 4.509 10.624 3.054 3.054 0 0 0-1.109 2.346 3.176 3.176 0 0 0 .618 1.853 2.846 2.846 0 0 0-.618 1.606v.247a3.176 3.176 0 0 0 .618 1.853 3.176 3.176 0 0 0-.618 1.853 3.136 3.136 0 0 0 2.779 3.088A4.108 4.108 0 0 0 36.315 65h9.018a4.2 4.2 0 0 0 4.138-3.706 3.09 3.09 0 0 0 2.779-3.088 3.176 3.176 0 0 0-.618-1.853 3.088 3.088 0 0 0 0-3.706 3.176 3.176 0 0 0 .618-1.853 3.054 3.054 0 0 0-1.112-2.347A14.808 14.808 0 0 0 40.824 23zm4.509 39.529h-9.018a1.724 1.724 0 0 1-1.606-1.235h12.229a1.724 1.724 0 0 1-1.606 1.235zM36.5 53.882h12.662a.618.618 0 0 1 0 1.235H36.5a1.235 1.235 0 0 0 0 2.471h12.662a.618.618 0 0 1 0 1.235H32.485a.618.618 0 1 1 0-1.235 1.235 1.235 0 0 0 0-2.471.618.618 0 1 1 0-1.235 1.235 1.235 0 0 0 0-2.471.618.618 0 1 1 0-1.235h16.677a.618.618 0 0 1 0 1.235H36.5a1.235 1.235 0 0 0 0 2.471zm11.735-6.176H33.412l-.124-.124a12.082 12.082 0 0 1-4.818-9.759 12.353 12.353 0 1 1 19.765 9.882z" class="cls-2" data-name="Path 8207" transform="translate(-6.5 -6.5)"/>
        </g>
    </g>
</svg>
