<svg xmlns="http://www.w3.org/2000/svg" width="295" height="63" viewBox="0 0 295 63">
    <defs>
        <style>
            .cls-1{fill:#e4f0f7}.cls-2{fill:#9dc8e3}.cls-3{fill:#4698ca}.cls-4{fill:#fafafa}.cls-5{fill:rgba(147,193,223,.64)}.cls-6{fill:rgba(108,171,212,.74)}.cls-7{fill:rgba(70,152,202,.8)}
        </style>
    </defs>
    <g id="Group_1865" data-name="Group 1865" transform="translate(-1525 -1050)">
        <g id="Group_1862" data-name="Group 1862" transform="translate(1292 -713)">
            <circle id="Ellipse_44" cx="31.5" cy="31.5" r="31.5" class="cls-1" data-name="Ellipse 44" transform="translate(465 1763)"/>
            <circle id="Ellipse_45" cx="29.5" cy="29.5" r="29.5" class="cls-2" data-name="Ellipse 45" transform="translate(467 1765)"/>
            <circle id="Ellipse_46" cx="27.5" cy="27.5" r="27.5" class="cls-3" data-name="Ellipse 46" transform="translate(469 1767)"/>
            <g id="noun_recording_1614610" transform="translate(462 815.638)">
                <path id="Path_8361" d="M34.634 966.362a5.4 5.4 0 0 0-5.4 5.4v7.914a5.4 5.4 0 0 0 10.792 0v-7.914a5.4 5.4 0 0 0-5.392-5.4zm0 1.439a3.933 3.933 0 0 1 3.957 3.957v7.914a3.957 3.957 0 0 1-7.914 0v-7.914a3.933 3.933 0 0 1 3.957-3.958zm-7.9 7.555a.748.748 0 0 0-.731.731v3.6a8.623 8.623 0 0 0 7.914 8.6v2.541h-2.881a.719.719 0 0 0 0 1.439h7.195a.719.719 0 0 0 0-1.439h-2.878v-2.541a8.623 8.623 0 0 0 7.914-8.6v-3.6a.72.72 0 1 0-1.439 0v3.6a7.195 7.195 0 0 1-14.39 0v-3.6a.748.748 0 0 0-.707-.731z" class="cls-4" data-name="Path 8361"/>
            </g>
        </g>
        <g id="Group_1863" data-name="Group 1863" transform="translate(1283 -713)">
            <g id="Group_1857" data-name="Group 1857" transform="translate(90 -14)">
                <circle id="Ellipse_44-2" cx="31.5" cy="31.5" r="31.5" class="cls-1" data-name="Ellipse 44" transform="translate(152 1777)"/>
                <circle id="Ellipse_45-2" cx="29.5" cy="29.5" r="29.5" class="cls-2" data-name="Ellipse 45" transform="translate(154 1779)"/>
                <circle id="Ellipse_46-2" cx="27.5" cy="27.5" r="27.5" class="cls-3" data-name="Ellipse 46" transform="translate(156 1781)"/>
                <g id="noun_Speaker_2051945" transform="translate(150.239 1770.39)">
                    <path id="Path_8355" d="M37.454 45.6v-15a1.989 1.989 0 0 0-1.987-1.987 9.453 9.453 0 0 0-8.079 4.523h-5.962a.665.665 0 0 0-.665.665v8.6a.665.665 0 0 0 .665.665h5.961a9.418 9.418 0 0 0 8.079 4.523 2 2 0 0 0 1.988-1.989zM27.1 41.729h-5v-7.266h5zm9.023 3.871a.668.668 0 0 1-.656.656 8.1 8.1 0 0 1-7.04-4.044v-8.228a8.127 8.127 0 0 1 7.04-4.044.657.657 0 0 1 .656.656z" class="cls-4" data-name="Path 8355"/>
                    <path id="Path_8356" d="M68.751 47.388a.665.665 0 0 0 .941.005 11.715 11.715 0 0 0-.213-16.893.665.665 0 0 0-.91.97 10.385 10.385 0 0 1 .187 14.977.665.665 0 0 0-.005.941z" class="cls-4" data-name="Path 8356" transform="translate(-26.488 -.951)"/>
                    <path id="Path_8357" d="M61.46 37.61a.665.665 0 0 0 .049.94 5.978 5.978 0 0 1 1.976 4.433 5.9 5.9 0 0 1-1.795 4.26.665.665 0 1 0 .929.953 7.222 7.222 0 0 0 2.2-5.213 7.311 7.311 0 0 0-2.419-5.422.666.666 0 0 0-.94.049z" class="cls-4" data-name="Path 8357" transform="translate(-22.553 -4.886)"/>
                </g>
            </g>
        </g>
        <g id="Group_1864" data-name="Group 1864" transform="translate(1288.096 -713)">
            <g id="Group_1852" data-name="Group 1852" transform="translate(394.348 1766)">
                <g id="Group_1851" data-name="Group 1851">
                    <circle id="Ellipse_20" cx="1.422" cy="1.422" r="1.422" class="cls-5" data-name="Ellipse 20"/>
                    <circle id="Ellipse_21" cx="1.422" cy="1.422" r="1.422" class="cls-5" data-name="Ellipse 21" transform="translate(0 6.718)"/>
                    <circle id="Ellipse_22" cx="1.422" cy="1.422" r="1.422" class="cls-5" data-name="Ellipse 22" transform="translate(0 13.437)"/>
                    <circle id="Ellipse_23" cx="1.422" cy="1.422" r="1.422" class="cls-5" data-name="Ellipse 23" transform="translate(0 20.155)"/>
                    <circle id="Ellipse_24" cx="1.422" cy="1.422" r="1.422" class="cls-5" data-name="Ellipse 24" transform="translate(0 26.873)"/>
                    <circle id="Ellipse_25" cx="1.422" cy="1.422" r="1.422" class="cls-5" data-name="Ellipse 25" transform="translate(0 33.592)"/>
                    <circle id="Ellipse_26" cx="1.422" cy="1.422" r="1.422" class="cls-5" data-name="Ellipse 26" transform="translate(0 40.31)"/>
                    <circle id="Ellipse_27" cx="1.422" cy="1.422" r="1.422" class="cls-5" data-name="Ellipse 27" transform="translate(0 47.029)"/>
                    <circle id="Ellipse_28" cx="1.422" cy="1.422" r="1.422" class="cls-5" data-name="Ellipse 28" transform="translate(0 53.747)"/>
                    <circle id="Ellipse_29" cx="1.422" cy="1.422" r="1.422" class="cls-6" data-name="Ellipse 29" transform="translate(6.996 6.718)"/>
                    <circle id="Ellipse_30" cx="1.422" cy="1.422" r="1.422" class="cls-6" data-name="Ellipse 30" transform="translate(6.996 13.437)"/>
                    <circle id="Ellipse_31" cx="1.422" cy="1.422" r="1.422" class="cls-6" data-name="Ellipse 31" transform="translate(6.996 20.155)"/>
                    <circle id="Ellipse_32" cx="1.422" cy="1.422" r="1.422" class="cls-6" data-name="Ellipse 32" transform="translate(6.996 26.873)"/>
                    <circle id="Ellipse_33" cx="1.422" cy="1.422" r="1.422" class="cls-6" data-name="Ellipse 33" transform="translate(6.996 33.592)"/>
                    <circle id="Ellipse_34" cx="1.422" cy="1.422" r="1.422" class="cls-6" data-name="Ellipse 34" transform="translate(6.996 40.31)"/>
                    <circle id="Ellipse_35" cx="1.422" cy="1.422" r="1.422" class="cls-6" data-name="Ellipse 35" transform="translate(6.996 47.029)"/>
                    <circle id="Ellipse_36" cx="1.422" cy="1.422" r="1.422" class="cls-7" data-name="Ellipse 36" transform="translate(13.991 13.437)"/>
                    <circle id="Ellipse_37" cx="1.422" cy="1.422" r="1.422" class="cls-7" data-name="Ellipse 37" transform="translate(13.991 20.155)"/>
                    <circle id="Ellipse_38" cx="1.422" cy="1.422" r="1.422" class="cls-7" data-name="Ellipse 38" transform="translate(13.991 26.873)"/>
                    <circle id="Ellipse_39" cx="1.422" cy="1.422" r="1.422" class="cls-7" data-name="Ellipse 39" transform="translate(13.991 33.592)"/>
                    <circle id="Ellipse_40" cx="1.422" cy="1.422" r="1.422" class="cls-7" data-name="Ellipse 40" transform="translate(13.991 40.31)"/>
                    <circle id="Ellipse_41" cx="1.422" cy="1.422" r="1.422" class="cls-3" data-name="Ellipse 41" transform="translate(20.987 20.155)"/>
                    <circle id="Ellipse_42" cx="1.422" cy="1.422" r="1.422" class="cls-3" data-name="Ellipse 42" transform="translate(20.987 26.873)"/>
                    <circle id="Ellipse_43" cx="1.422" cy="1.422" r="1.422" class="cls-3" data-name="Ellipse 43" transform="translate(20.987 33.592)"/>
                    <path id="Path_8354" d="M1.422 0A1.422 1.422 0 1 1 0 1.422 1.422 1.422 0 0 1 1.422 0z" class="cls-3" data-name="Path 8354" transform="translate(27.983 26.873)"/>
                </g>
            </g>
            <g id="Group_1851-2" data-name="Group 1851" transform="rotate(180 186.865 911.295)">
                <circle id="Ellipse_20-2" cx="1.422" cy="1.422" r="1.422" class="cls-5" data-name="Ellipse 20"/>
                <circle id="Ellipse_21-2" cx="1.422" cy="1.422" r="1.422" class="cls-5" data-name="Ellipse 21" transform="translate(0 6.718)"/>
                <circle id="Ellipse_22-2" cx="1.422" cy="1.422" r="1.422" class="cls-5" data-name="Ellipse 22" transform="translate(0 13.437)"/>
                <circle id="Ellipse_23-2" cx="1.422" cy="1.422" r="1.422" class="cls-5" data-name="Ellipse 23" transform="translate(0 20.155)"/>
                <circle id="Ellipse_24-2" cx="1.422" cy="1.422" r="1.422" class="cls-5" data-name="Ellipse 24" transform="translate(0 26.873)"/>
                <circle id="Ellipse_25-2" cx="1.422" cy="1.422" r="1.422" class="cls-5" data-name="Ellipse 25" transform="translate(0 33.592)"/>
                <circle id="Ellipse_26-2" cx="1.422" cy="1.422" r="1.422" class="cls-5" data-name="Ellipse 26" transform="translate(0 40.31)"/>
                <circle id="Ellipse_27-2" cx="1.422" cy="1.422" r="1.422" class="cls-5" data-name="Ellipse 27" transform="translate(0 47.029)"/>
                <circle id="Ellipse_28-2" cx="1.422" cy="1.422" r="1.422" class="cls-5" data-name="Ellipse 28" transform="translate(0 53.747)"/>
                <circle id="Ellipse_29-2" cx="1.422" cy="1.422" r="1.422" class="cls-6" data-name="Ellipse 29" transform="translate(6.996 6.718)"/>
                <circle id="Ellipse_30-2" cx="1.422" cy="1.422" r="1.422" class="cls-6" data-name="Ellipse 30" transform="translate(6.996 13.437)"/>
                <circle id="Ellipse_31-2" cx="1.422" cy="1.422" r="1.422" class="cls-6" data-name="Ellipse 31" transform="translate(6.996 20.155)"/>
                <circle id="Ellipse_32-2" cx="1.422" cy="1.422" r="1.422" class="cls-6" data-name="Ellipse 32" transform="translate(6.996 26.873)"/>
                <circle id="Ellipse_33-2" cx="1.422" cy="1.422" r="1.422" class="cls-6" data-name="Ellipse 33" transform="translate(6.996 33.592)"/>
                <circle id="Ellipse_34-2" cx="1.422" cy="1.422" r="1.422" class="cls-6" data-name="Ellipse 34" transform="translate(6.996 40.31)"/>
                <circle id="Ellipse_35-2" cx="1.422" cy="1.422" r="1.422" class="cls-6" data-name="Ellipse 35" transform="translate(6.996 47.029)"/>
                <circle id="Ellipse_36-2" cx="1.422" cy="1.422" r="1.422" class="cls-7" data-name="Ellipse 36" transform="translate(13.991 13.437)"/>
                <circle id="Ellipse_37-2" cx="1.422" cy="1.422" r="1.422" class="cls-7" data-name="Ellipse 37" transform="translate(13.991 20.155)"/>
                <circle id="Ellipse_38-2" cx="1.422" cy="1.422" r="1.422" class="cls-7" data-name="Ellipse 38" transform="translate(13.991 26.873)"/>
                <circle id="Ellipse_39-2" cx="1.422" cy="1.422" r="1.422" class="cls-7" data-name="Ellipse 39" transform="translate(13.991 33.592)"/>
                <circle id="Ellipse_40-2" cx="1.422" cy="1.422" r="1.422" class="cls-7" data-name="Ellipse 40" transform="translate(13.991 40.31)"/>
                <circle id="Ellipse_41-2" cx="1.422" cy="1.422" r="1.422" class="cls-3" data-name="Ellipse 41" transform="translate(20.987 20.155)"/>
                <circle id="Ellipse_42-2" cx="1.422" cy="1.422" r="1.422" class="cls-3" data-name="Ellipse 42" transform="translate(20.987 26.873)"/>
                <circle id="Ellipse_43-2" cx="1.422" cy="1.422" r="1.422" class="cls-3" data-name="Ellipse 43" transform="translate(20.987 33.592)"/>
                <path id="Path_8354-2" d="M1.422 0A1.422 1.422 0 1 1 0 1.422 1.422 1.422 0 0 1 1.422 0z" class="cls-3" data-name="Path 8354" transform="translate(27.983 26.873)"/>
            </g>
        </g>
    </g>
</svg>
