<svg width="180" height="200" xmlns="http://www.w3.org/2000/svg">
 <defs>
  <style>.cls-1,.cls-2{fill:#4f2b01}.cls-2{fill-rule:evenodd}</style>
 </defs>
 <g>
  <title>background</title>
  <rect fill="none" id="canvas_background" height="202" width="182" y="-1" x="-1"/>
 </g>
 <g>
  <title>Layer 1</title>
  <g stroke="null" id="text-with-icon-bkg-2">
   <path stroke="null" class="cls-1" d="m160.630523,11.703435a33.822036,33.822036 0 0 0 -34.859269,-4.937901a32.178607,32.178607 0 0 0 -3.723988,1.931295a38.851323,38.851323 0 0 0 -17.593368,13.803887c-10.839927,15.285866 -7.435791,36.421973 6.378757,48.699711c12.268598,10.902375 33.540262,13.974474 45.291005,1.244376a33.051345,33.051345 0 0 0 17.40298,-24.217345c2.467428,-13.643961 -1.98765,-27.715914 -12.896117,-36.524021zm-50.777224,30.344791a3.914376,3.914376 0 1 1 3.914376,-3.914376a3.914376,3.914376 0 0 1 -3.914376,3.914376zm12.794069,21.332587a3.914376,3.914376 0 1 1 2.765956,-1.143851a3.914376,3.914376 0 0 1 -2.765956,1.143851zm19.625188,-42.668221a3.914376,3.914376 0 1 1 2.765956,-1.143851a3.914376,3.914376 0 0 1 -2.765956,1.143851zm11.08667,37.556686a3.914376,3.914376 0 1 1 3.914376,-3.914376a3.914376,3.914376 0 0 1 -3.909807,3.914376l-0.004569,0z" id="Path_57348"/>
   <path stroke="null" class="cls-2" d="m-1119.249281,-18.114223c-3.062,-7.281 -12.97,-14.915 -20.84,-12.031c-10.03,1.481 -18.692,10.187 -18.158,20.688a17.346,17.346 0 0 0 2.389,7.861c-0.179,3.177 0.449,6.288 2.81,8.668a15.556,15.556 0 0 0 10.145,4.146c5.188,1.34 11.907,-1.086 16.373,-3.557c4.841,-2.678 8.288,-6.822 7.566,-12.529a18.05,18.05 0 0 0 -0.284,-13.246l-0.001,0zm-30.344,8.809a2.57,2.57 0 1 1 2.57,-2.57a2.57,2.57 0 0 1 -2.57,2.57zm9.3,17.137a2.57,2.57 0 1 1 2.568,-2.57a2.57,2.57 0 0 1 -2.568,2.57zm2.244,-25.212a2.57,2.57 0 1 1 2.57,-2.57a2.57,2.57 0 0 1 -2.575,2.57l0.005,0zm8.821,10.085a2.57,2.57 0 1 1 2.57,-2.57a2.57,2.57 0 0 1 -2.57,2.57z" id="Path_57352"/>
   <path stroke="null" class="cls-1" d="m-1091.328295,200.573769a22.206,22.206 0 0 0 -22.887,-3.242a21.127,21.127 0 0 0 -2.445,1.268a25.508,25.508 0 0 0 -11.551,9.063c-7.117,10.036 -4.882,23.913 4.188,31.974c8.055,7.158 22.021,9.175 29.736,0.817a21.7,21.7 0 0 0 11.426,-15.9c1.62,-8.958 -1.305,-18.197 -8.467,-23.98zm-33.338,19.923a2.57,2.57 0 1 1 2.57,-2.57a2.57,2.57 0 0 1 -2.57,2.57zm8.4,14.006a2.57,2.57 0 1 1 1.816,-0.751a2.57,2.57 0 0 1 -1.816,0.751zm12.885,-28.014a2.57,2.57 0 1 1 1.816,-0.751a2.57,2.57 0 0 1 -1.816,0.751zm7.279,24.658a2.57,2.57 0 1 1 2.57,-2.57a2.57,2.57 0 0 1 -2.567,2.57l-0.003,0z" id="Path_57348-2"/>
   <path stroke="null" class="cls-2" d="m-1035.000343,323.754753c-3.972,0 -5.106,-4.39 -3.417,-6.917a4.192,4.192 0 0 1 -2.3,0.631a4.005,4.005 0 0 1 -4.122,-3.61a10.718,10.718 0 0 0 -2.189,0.456c-4.107,1.327 -5.62,4.64 -5.92,8.7a9.946,9.946 0 1 0 19.844,0.321a4.354,4.354 0 0 1 -1.896,0.419zm-13.21,-1.375a2.57,2.57 0 1 1 2.57,-2.57a2.57,2.57 0 0 1 -2.57,2.57zm6.674,8.635a2.57,2.57 0 1 1 2.57,-2.57a2.57,2.57 0 0 1 -2.57,2.57z" id="Path_57354"/>
   <path stroke="null" class="cls-2" d="m33.81123,174.180355c-5.7,-4.332 -14.9,-2.229 -17.706,4.493c-2.856,6.845 2.1,15.364 9.546,16.02c4.287,0.377 9.007,-2.081 10.235,-6.409a7.573,7.573 0 0 0 0.211,-1.053a9.373,9.373 0 0 0 -2.286,-13.051zm-12.924,8.035a2.57,2.57 0 1 1 2.57,-2.57a2.57,2.57 0 0 1 -2.57,2.57zm7.915,10.365a2.57,2.57 0 1 1 2.57,-2.57a2.57,2.57 0 0 1 -2.571,2.57l0.001,0zm5.14,-11.486a2.57,2.57 0 1 1 2.57,-2.57a2.57,2.57 0 0 1 -2.571,2.57l0.001,0z" id="Path_57357"/>
   <path stroke="null" class="cls-2" d="m109.718064,142.885146a10.648,10.648 0 0 0 -1.972,5.991c1.723,4.639 3.537,8.287 8.066,9.692c6.439,2 14.265,-7.626 13,-14.1c-0.823,-4.229 -3.3,-5.507 -6.914,-6.873c-7.412,-2.788 -8.989,-0.16 -12.18,5.29zm7.243,5.815l0.329,1.058a2.611,2.611 0 0 1 -1.152,2.294a3.661,3.661 0 0 1 -2.143,-0.176l-0.823,-1.41a2.129,2.129 0 0 1 0.494,-1.586c0.334,-0.66 0.465,-0.755 1.317,-0.881c0.808,-0.313 1.413,0.26 1.979,0.7l-0.001,0.001zm6.914,-8.987l0.658,1.234l-0.329,1.938a3.164,3.164 0 0 1 -2.469,0.7l-1.152,-1.233l0,-1.762l1.482,-1.234l1.81,0.357z" id="Path_57343"/>
   <path stroke="null" class="cls-1" d="m-1167.794302,631.81377a8.577,8.577 0 0 0 -1.708,-2.079a14.348,14.348 0 0 0 -2.745,-3.7c-9.446,-9.209 -25.641,-5.443 -30.3,4.489a16.914,16.914 0 0 0 -4.151,17.776a15.223,15.223 0 0 0 4.777,6.573a18.055,18.055 0 0 0 10.166,5.481a19.789,19.789 0 0 0 20.115,-7.709a15.475,15.475 0 0 0 4.939,-8.617c0.684,-3.783 0.966,-8.715 -1.093,-12.214zm-27.549,8.557a2.57,2.57 0 1 1 2.57,-2.571a2.57,2.57 0 0 1 -2.57,2.57l0,0.001zm14.56,16.574a2.57,2.57 0 1 1 2.57,-2.57a2.57,2.57 0 0 1 -2.571,2.57l0.001,0zm0.89,-21.292a2.57,2.57 0 1 1 2.569,-2.568a2.57,2.57 0 0 1 -2.569,2.568z" id="Path_57358"/>
   <g stroke="null" transform="matrix(0.057522441297131535,-0.9876883405951378,0.3631824008675704,0.15643446504023092,523.3328746102382,557.8300061416955) " id="Vector_Smart_Object">
    <g stroke="null" id="Vector_Smart_Object-2">
     <path stroke="null" class="cls-1" d="m-464.364487,-3238.781364c-0.672,-7.511 -9.331,-12.056 -16.079,-8.995a9.853,9.853 0 0 0 -2.954,2.062a4.537,4.537 0 0 1 1.922,2.337c0.056,0.143 0.1,0.283 0.138,0.423a4.615,4.615 0 0 1 1.74,8.43a4.573,4.573 0 0 1 1.8,2.262a4.345,4.345 0 0 1 -1.262,5.146a9.982,9.982 0 0 0 1.152,0.347c7.038,1.546 14.18,-4.846 13.543,-12.012zm-10.715,-2.033a2.852,2.852 0 1 1 3.7,1.614a2.839,2.839 0 0 1 -3.7,-1.615l0,0.001z" id="Path_99"/>
    </g>
    <path stroke="null" class="cls-1" d="m-477.909486,-3226.768363a10.134,10.134 0 0 1 -1.151,-0.348a4.345,4.345 0 0 0 1.263,-5.146a4.573,4.573 0 0 0 -1.8,-2.262a4.391,4.391 0 0 0 1.8,-5.539a4.351,4.351 0 0 0 -3.54,-2.891c-0.043,-0.14 -0.082,-0.28 -0.138,-0.423a4.535,4.535 0 0 0 -1.922,-2.337a9.844,9.844 0 0 1 2.955,-2.062c6.745,-3.066 15.406,1.483 16.078,8.994c0.576,6.436 -5.128,12.246 -11.4,12.246a10.029,10.029 0 0 1 -2.145,-0.232zm4.45,-17.729a2.856,2.856 0 1 0 1.037,-0.2a2.84,2.84 0 0 0 -1.037,0.2z" id="Color_Overlay"/>
   </g>
   <path stroke="null" class="cls-1" d="m54.517851,72.343002a22.206,22.206 0 0 0 -22.887,-3.242a21.127,21.127 0 0 0 -2.445,1.268a25.508,25.508 0 0 0 -11.551,9.063c-7.117,10.036 -4.882,23.913 4.188,31.974c8.055,7.158 22.021,9.175 29.736,0.817a21.7,21.7 0 0 0 11.426,-15.9c1.62,-8.958 -1.305,-18.197 -8.467,-23.98zm-33.338,19.923a2.57,2.57 0 1 1 2.57,-2.57a2.57,2.57 0 0 1 -2.57,2.57zm8.4,14.006a2.57,2.57 0 1 1 1.816,-0.751a2.57,2.57 0 0 1 -1.816,0.751zm12.885,-28.014a2.57,2.57 0 1 1 1.816,-0.751a2.57,2.57 0 0 1 -1.816,0.751zm7.279,24.658a2.57,2.57 0 1 1 2.57,-2.57a2.57,2.57 0 0 1 -2.567,2.57l-0.003,0z" id="svg_1"/>
  </g>
 </g>
</svg>