<svg xmlns="http://www.w3.org/2000/svg" width="485.78" height="475.655" viewBox="0 0 485.78 475.655">
    <defs>
        <style>
            .cls-1,.cls-2{fill:#4f2b01}.cls-2{fill-rule:evenodd}
        </style>
    </defs>
    <g id="Group_3691" data-name="Group 3691" transform="translate(-978.433 -595.135)">
        <g id="Group_2858" data-name="Group 2858" transform="translate(956 625)">
            <path id="Path_57446" d="M270.154 327.026a30.75 30.75 0 0 1-31.7 4.487 29.22 29.22 0 0 1-3.386-1.756 35.327 35.327 0 0 1-15.995-12.55c-9.857-13.9-6.762-33.117 5.8-44.279 11.156-9.914 30.5-12.705 41.18-1.131a30.047 30.047 0 0 1 15.825 22.012c2.246 12.407-1.804 25.202-11.724 33.217zm-46.177-27.6a3.559 3.559 0 1 0 3.559 3.559 3.559 3.559 0 0 0-3.559-3.555zm11.638-19.4a3.559 3.559 0 1 0 3.559 3.559 3.559 3.559 0 0 0-3.558-3.552zm17.845 38.794a3.559 3.559 0 1 0 3.559 3.559 3.559 3.559 0 0 0-3.558-3.552zm10.086-34.139a3.559 3.559 0 1 0 3.559 3.559 3.559 3.559 0 0 0-3.557-3.551z" class="cls-1" data-name="Path 57446" transform="rotate(73 361.328 249.432)"/>
            <path id="Path_57444" d="M1432.711 1589.884a9.066 9.066 0 0 1-12.1.669c-6.841-1.924-11.173-10.068-6.792-16.539a11.327 11.327 0 0 1 12.23-4.808 5.085 5.085 0 0 1 1.312-.169 4.205 4.205 0 0 1 4.231 3 12.776 12.776 0 0 1 3.559 5.07c1.633 4.246.942 9.505-2.44 12.777zm-14.985-12.3a2.681 2.681 0 1 0 2.748 2.68 2.715 2.715 0 0 0-2.749-2.676zm6.753 2.726a3.524 3.524 0 0 0-1.79.285 3.945 3.945 0 0 1 .669 1.365 1.6 1.6 0 0 0 1.643-.6c.551-.75.054-.899-.522-1.046zm5.474 3.276a2.681 2.681 0 1 0 2.748 2.68 2.714 2.714 0 0 0-2.748-2.676z" class="cls-1" data-name="Path 57444" transform="translate(-1389.618 -1579.237)"/>
            <path id="Path_57445" d="M2510.542 1643.545c-9.066 2.641-18.3-5.353-17.788-14.588a12.288 12.288 0 0 1 1.064-4.373 5.677 5.677 0 0 0 3.6 1.169c.192 0 .373-.018.556-.033a5.431 5.431 0 0 0 4.98 2.8 5.508 5.508 0 0 0 5.641-4.619 5.722 5.722 0 0 0 3.455 1.059 5.453 5.453 0 0 0 5.43-3.811 12.509 12.509 0 0 1 .928 1.18c4.992 7.481.783 18.697-7.866 21.216zm-7.235-11.526a3.559 3.559 0 1 0 3.56 3.559 3.559 3.559 0 0 0-3.56-3.558z" class="cls-1" data-name="Path 57445" transform="scale(-1) rotate(88 1982.428 -779.018)"/>
            <path id="Path_57447" d="M1411.781 2642.826c.81-3.416-1.056-7.573-5.6-7.573a5.431 5.431 0 0 0-4.884 2.638 6.343 6.343 0 0 0-1.839-.265 5.475 5.475 0 0 0-4.444 2.011q-.337-.034-.7-.034a5.5 5.5 0 0 0-5.611 4.468c-6.953-3.2-9.635-9.642-10.212-17.4a20.962 20.962 0 0 1 30.729-20.128c14.019 7.421 14.362 27.296 2.561 36.283zm-26.255-13.033a3.559 3.559 0 1 0 3.559 3.559 3.559 3.559 0 0 0-3.559-3.56zm10.24-19.4a3.559 3.559 0 1 0 3.559 3.559 3.559 3.559 0 0 0-3.559-3.552zm12.716 12.734a3.559 3.559 0 1 0 3.559 3.559 3.559 3.559 0 0 0-3.559-3.556z" class="cls-2" data-name="Path 57447" transform="translate(-1183.033 -2633.93)"/>
            <path id="Path_57448" d="M359.93 2646.1c-3.622 3.1-2.365 10.669 3.762 10.669.054 0 .1-.007.157-.008.031.012.055.032.086.043a16.709 16.709 0 0 1-3.581 4.354 15.891 15.891 0 0 1-2.014 3.292c-9.985 12.394-34.58.669-33.792-14.369.433-8.256 6.938-14.337 14.076-17.44 7.381-3.209 15.5-5.8 21.995.55.313.306.607.626.894.952a6.619 6.619 0 0 0 .937 6.41 6.056 6.056 0 0 0-2.52 5.547zm-24.975-1.462a3.559 3.559 0 1 0 3.559 3.559 3.559 3.559 0 0 0-3.558-3.561zm14.745-7.438a3.559 3.559 0 1 0 3.559 3.559 3.559 3.559 0 0 0-3.559-3.559zm1.552 19.853a3.559 3.559 0 1 0 3.559 3.56 3.559 3.559 0 0 0-3.562-3.563z" class="cls-1" data-name="Path 57448" transform="translate(-289.873 -2576.29)"/>
            <path id="Path_57449" d="M2486.084 2703.507a11.994 11.994 0 0 1-7.167-.4 6.831 6.831 0 0 0-.219-4.825 3.548 3.548 0 0 0-2.151-6.378c-.1 0-.185.021-.278.028a6.6 6.6 0 0 0-.942-7.049 11.7 11.7 0 0 1 4.082-2.657c.08-.032.154-.076.235-.106 6.028-2.256 12.338 2.017 14.016 7.856a10.85 10.85 0 0 1-7.576 13.531zm2.2-15.158a3.559 3.559 0 1 0 3.559 3.56 3.559 3.559 0 0 0-3.563-3.56z" class="cls-1" data-name="Path 57449" transform="translate(-2110.746 -2690.329)"/>
        </g>
        <path id="Path_57451" d="M463.306 427.887c10.646-4.775 22.3-5.9 32.654-2.9a104.125 104.125 0 0 1 41.077 4.359c38.012 12.272 51.971 42.926 54.768 80.536 5.41 72.735-71.011 122.825-135.444 88.72-68.272-36.137-62.938-139.371 6.945-170.715zm55.637 163.425a23.78 23.78 0 1 0-23.78-23.78 23.78 23.78 0 0 0 23.78 23.78zm-62.2-80.348a23.78 23.78 0 1 0-23.78-23.78 23.78 23.78 0 0 0 23.775 23.78z" class="cls-2" data-name="Path 57451" transform="rotate(23 -141.615 2802.757)"/>
    </g>
</svg>
