<svg xmlns="http://www.w3.org/2000/svg" width="149.566" height="344.18" viewBox="0 0 149.566 344.18">
    <defs>
        <style>
            .cls-1,.cls-2{fill:#4f2b01}.cls-2{fill-rule:evenodd}
        </style>
    </defs>
    <g id="Group_3684" data-name="Group 3684" transform="rotate(10.02 9019.021 1314.826)">
        <g id="Group_3672" data-name="Group 3672" transform="rotate(-23 3926.268 1064.02)">
            <path id="Path_57446" d="M39.182 4.828a21.171 21.171 0 0 0-21.822-3.09 20.118 20.118 0 0 0-2.331 1.209 24.322 24.322 0 0 0-11.012 8.641c-6.786 9.57-4.655 22.8 3.993 30.485 7.681 6.825 21 8.747 28.352.779A20.687 20.687 0 0 0 47.256 27.7a23.693 23.693 0 0 0-8.074-22.872zm-31.792 19a2.45 2.45 0 1 1 2.451-2.45 2.45 2.45 0 0 1-2.45 2.449zm8.01 13.354a2.451 2.451 0 1 1 2.451-2.45 2.45 2.45 0 0 1-2.451 2.45zm12.29-26.709a2.45 2.45 0 1 1 2.45-2.451 2.451 2.451 0 0 1-2.45 2.451zm6.944 23.5a2.45 2.45 0 1 1 2.451-2.451 2.45 2.45 0 0 1-2.451 2.454z" class="cls-1" data-name="Path 57446" transform="rotate(107 -76.926 167.243)"/>
            <path id="Path_57445" d="M12.261.352C6.019-1.466-.336 4.037.014 10.4a8.46 8.46 0 0 0 .733 3.01 3.909 3.909 0 0 1 2.478-.8c.132 0 .257.012.383.022A3.739 3.739 0 0 1 7.036 10.7a3.792 3.792 0 0 1 3.884 3.18 3.94 3.94 0 0 1 2.378-.729 3.754 3.754 0 0 1 3.738 2.624 8.612 8.612 0 0 0 .639-.812c3.441-5.155.541-12.876-5.414-14.611zM7.28 8.287a2.451 2.451 0 1 1 2.451-2.45 2.45 2.45 0 0 1-2.451 2.45z" class="cls-1" data-name="Path 57445" transform="rotate(-88 74.986 -7.877)"/>
            <path id="Path_57449" d="M20.667 42.257A23.043 23.043 0 0 1 6.9 41.5a13.125 13.125 0 0 0-.421-9.27 6.8 6.8 0 0 0 2.705-5.416 6.837 6.837 0 0 0-6.838-6.838c-.183 0-.354.039-.534.053A12.683 12.683 0 0 0 0 6.486a22.473 22.473 0 0 1 7.842-5.1c.153-.062.3-.146.451-.2C19.873-3.156 32 5.053 35.22 16.271a20.845 20.845 0 0 1-14.553 25.986zm4.218-29.121a6.838 6.838 0 1 0 6.838 6.838 6.838 6.838 0 0 0-6.838-6.838z" class="cls-1" data-name="Path 57449" transform="rotate(-45 15.7 -16.14)"/>
        </g>
        <path id="Path_57520" d="M38.13 125.066a32.934 32.934 0 0 0 22.482 2 71.688 71.688 0 0 0 28.281-3c26.171-8.449 35.781-29.554 37.707-55.448 3.725-50.077-48.89-84.563-93.251-61.082-47.004 24.875-43.332 95.95 4.781 117.53zm38.3-112.515a16.372 16.372 0 1 1-16.367 16.372 16.372 16.372 0 0 1 16.372-16.372zM33.608 67.869a16.372 16.372 0 1 1-16.372 16.372 16.372 16.372 0 0 1 16.372-16.372z" class="cls-2" data-name="Path 57520" transform="rotate(-16 6142.96 1066.15)"/>
    </g>
</svg>
