<svg xmlns="http://www.w3.org/2000/svg" width="302.346" height="330.03" viewBox="0 0 302.346 330.03">
    <defs>
        <style>
            .cls-1,.cls-2{fill:#4f2b01}.cls-2{fill-rule:evenodd}
        </style>
    </defs>
    <g id="Group_3686" data-name="Group 3686" transform="translate(-1085.784 -2754)">
        <g id="Group_2866" data-name="Group 2866" transform="translate(28 2129)">
            <path id="Path_57454" d="M1294.217 271.5a31.868 31.868 0 0 0-32.845-4.653 30.325 30.325 0 0 0-3.508 1.819 36.6 36.6 0 0 0-16.576 13.005c-10.214 14.4-7.006 34.317 6.01 45.884 11.56 10.272 31.6 13.167 42.673 1.173a31.139 31.139 0 0 0 16.4-22.811c2.322-12.854-1.871-26.117-12.154-34.417zm-47.844 28.6a3.688 3.688 0 1 1 3.688-3.688 3.688 3.688 0 0 1-3.688 3.688zm12.061 20.1a3.652 3.652 0 1 0-.006 0zm18.491-40.2a3.7 3.7 0 1 0-.006 0zm10.446 35.385a3.688 3.688 0 1 1 3.688-3.688 3.688 3.688 0 0 1-3.688 3.682z" class="cls-1" data-name="Path 57454" transform="translate(53.138 387.769)"/>
            <path id="Path_57455" d="M4475.854 1570.615c-5.7-4.332-14.9-2.229-17.706 4.493-2.856 6.845 2.1 15.364 9.546 16.02 4.287.377 9.007-2.081 10.235-6.409a7.573 7.573 0 0 0 .211-1.053 9.373 9.373 0 0 0-2.286-13.051zm-12.924 8.035a2.57 2.57 0 1 1 2.57-2.57 2.57 2.57 0 0 1-2.57 2.57zm7.915 10.365a2.57 2.57 0 1 1 2.57-2.57 2.57 2.57 0 0 1-2.571 2.57zm5.14-11.486a2.57 2.57 0 1 1 2.57-2.57 2.57 2.57 0 0 1-2.571 2.57z" class="cls-2" data-name="Path 57455" transform="translate(-3168.948 -782.402)"/>
            <path id="Path_57456" d="M335.622 3761.538a10.648 10.648 0 0 0-1.972 5.991c1.723 4.639 3.537 8.287 8.066 9.692 6.439 2 14.265-7.626 13-14.1-.823-4.229-3.3-5.507-6.914-6.873-7.412-2.788-8.989-.16-12.18 5.29zm7.243 5.815l.329 1.058a2.611 2.611 0 0 1-1.152 2.294 3.661 3.661 0 0 1-2.143-.176l-.823-1.41a2.129 2.129 0 0 1 .494-1.586c.334-.66.465-.755 1.317-.881.808-.313 1.413.26 1.979.7zm6.914-8.987l.658 1.234-.329 1.938a3.164 3.164 0 0 1-2.469.7l-1.152-1.233v-1.762l1.482-1.234z" class="cls-2" data-name="Path 57456" transform="translate(869.037 -3041.851)"/>
            <g id="Vector_Smart_Object" data-name="Vector Smart Object" transform="rotate(-81 1211.911 -294.184)">
                <g id="Vector_Smart_Object-2" data-name="Vector Smart Object">
                    <path id="Path_99" d="M126.411 1577.81c-1.376-13.411-19.111-21.525-32.93-16.06a20.446 20.446 0 0 0-6.051 3.682 8.481 8.481 0 0 1 3.937 4.173c.115.256.2.5.283.756a8.766 8.766 0 0 1 7.257 5.162c1.95 4.338-.21 7.942-3.693 9.889a8.489 8.489 0 0 1 3.683 4.039c1.734 3.857.221 7.139-2.585 9.188a22.741 22.741 0 0 0 2.358.62c14.419 2.758 29.053-8.654 27.741-21.449zm-21.945-3.631c-1.174-2.611.311-5.554 3.317-6.573s6.395.27 7.568 2.881-.311 5.554-3.317 6.573-6.394-.269-7.568-2.88z" class="cls-1" data-name="Path 99" transform="translate(-87.43 -1560.026)"/>
                </g>
                <path id="Color_Overlay" d="M11.239 39.233a23.089 23.089 0 0 1-2.358-.621c2.806-2.049 4.319-5.331 2.585-9.188a8.49 8.49 0 0 0-3.683-4.039c3.483-1.946 5.643-5.551 3.693-9.888a8.767 8.767 0 0 0-7.256-5.163c-.087-.251-.168-.5-.282-.755A8.478 8.478 0 0 0 0 5.406a20.427 20.427 0 0 1 6.051-3.682C19.87-3.741 37.6 4.373 38.981 17.784c1.179 11.491-10.5 21.865-23.34 21.865a23.448 23.448 0 0 1-4.402-.416zm9.114-31.654c-3.006 1.02-4.491 3.964-3.317 6.574s4.562 3.9 7.568 2.882 4.491-3.964 3.317-6.574a5.9 5.9 0 0 0-5.445-3.23 6.616 6.616 0 0 0-2.123.348z" class="cls-1" data-name="Color Overlay"/>
            </g>
        </g>
        <g id="Group_2867" data-name="Group 2867" transform="translate(1075.784 2754)">
            <path id="Path_57348" d="M1276.338 269.3a22.206 22.206 0 0 0-22.887-3.242 21.127 21.127 0 0 0-2.445 1.268 25.508 25.508 0 0 0-11.551 9.063c-7.117 10.036-4.882 23.913 4.188 31.974 8.055 7.158 22.021 9.175 29.736.817a21.7 21.7 0 0 0 11.426-15.9c1.62-8.958-1.305-18.197-8.467-23.98zM1243 289.223a2.57 2.57 0 1 1 2.57-2.57 2.57 2.57 0 0 1-2.57 2.57zm8.4 14.006a2.57 2.57 0 1 1 1.816-.751 2.57 2.57 0 0 1-1.816.751zm12.885-28.014a2.57 2.57 0 1 1 1.816-.751 2.57 2.57 0 0 1-1.816.751zm7.279 24.658a2.57 2.57 0 1 1 2.57-2.57 2.57 2.57 0 0 1-2.567 2.57z" class="cls-1" data-name="Path 57348" transform="translate(-1225.242 -264.231)"/>
            <path id="Path_57343" d="M335.622 3761.538a10.648 10.648 0 0 0-1.972 5.991c1.723 4.639 3.537 8.287 8.066 9.692 6.439 2 14.265-7.626 13-14.1-.823-4.229-3.3-5.507-6.914-6.873-7.412-2.788-8.989-.16-12.18 5.29zm7.243 5.815l.329 1.058a2.611 2.611 0 0 1-1.152 2.294 3.661 3.661 0 0 1-2.143-.176l-.823-1.41a2.129 2.129 0 0 1 .494-1.586c.334-.66.465-.755 1.317-.881.808-.313 1.413.26 1.979.7zm6.914-8.987l.658 1.234-.329 1.938a3.164 3.164 0 0 1-2.469.7l-1.152-1.233v-1.762l1.482-1.234z" class="cls-2" data-name="Path 57343" transform="translate(-235.096 -3709.851)"/>
            <g id="Vector_Smart_Object-3" data-name="Vector Smart Object" transform="rotate(-81 109.551 -89.675)">
                <g id="Vector_Smart_Object-4" data-name="Vector Smart Object">
                    <path id="Path_99-2" d="M19.033 9.96C18.361 2.449 9.7-2.1 2.954.966A9.853 9.853 0 0 0 0 3.028a4.537 4.537 0 0 1 1.922 2.337c.056.143.1.283.138.423A4.351 4.351 0 0 1 5.6 8.679a4.391 4.391 0 0 1-1.8 5.539 4.573 4.573 0 0 1 1.8 2.262 4.345 4.345 0 0 1-1.262 5.146 9.982 9.982 0 0 0 1.152.347c7.038 1.545 14.184-4.846 13.543-12.013zM8.318 7.927a2.852 2.852 0 1 1 3.7 1.614 2.839 2.839 0 0 1-3.7-1.614z" class="cls-1" data-name="Path 99"/>
                </g>
                <path id="Color_Overlay-2" d="M5.488 21.974a10.134 10.134 0 0 1-1.151-.348A4.345 4.345 0 0 0 5.6 16.48a4.573 4.573 0 0 0-1.8-2.262 4.391 4.391 0 0 0 1.8-5.539 4.351 4.351 0 0 0-3.54-2.891c-.043-.14-.082-.28-.138-.423A4.535 4.535 0 0 0 0 3.028 9.844 9.844 0 0 1 2.955.966C9.7-2.1 18.361 2.449 19.033 9.96c.576 6.436-5.128 12.246-11.4 12.246a10.029 10.029 0 0 1-2.145-.232zm4.45-17.729a2.856 2.856 0 1 0 1.037-.2 2.84 2.84 0 0 0-1.037.2z" class="cls-1" data-name="Color Overlay"/>
            </g>
        </g>
    </g>
</svg>
