<svg xmlns="http://www.w3.org/2000/svg" width="30" height="30" viewBox="0 0 30 30">
    <defs>
        <style>
            .cls-1{fill:#fff}.cls-2{fill:#f4364c}
        </style>
    </defs>
      <g transform="rotate(-180.00 15.00,15.00) " id="Group_1668">
       <circle class="cls-1" r="15" cy="15" cx="15" id="Ellipse_14"/>
       <g id="Icon_ionic-ios-arrow-dropleft">
        <path class="cls-2" d="m13.136,10.368a0.85,0.85 0 0 1 1.2,0l4.184,4.2a0.846,0.846 0 0 1 0.026,1.167l-4.123,4.136a0.845,0.845 0 1 1 -1.2,-1.193l3.5,-3.557l-3.592,-3.557a0.837,0.837 0 0 1 0.005,-1.196z" id="Path_8163"/>
        <path class="cls-2" d="m6,15.125a9.123,9.123 0 1 0 9.125,-9.125a9.121,9.121 0 0 0 -9.125,9.125zm1.4,0a7.716,7.716 0 0 1 13.179,-5.458a7.716,7.716 0 1 1 -10.912,10.912a7.653,7.653 0 0 1 -2.264,-5.454l-0.003,0z" id="Path_8164"/>
       </g>
      </g>
</svg>