<svg xmlns="http://www.w3.org/2000/svg" width="14.42" height="14.575" viewBox="0 0 14.42 14.575">
    <defs>
        <style>
            .cls-1{stroke:#2e2e2e;stroke-width:.3px}
        </style>
    </defs>
    <g id="star" transform="translate(.15 .152)">
        <path id="Path_8347" d="M14.817 20.218h-.044a.525.525 0 0 1-.177-.047h-.015l-4.521-2.343-4.521 2.34a.488.488 0 0 1-.567-.08.586.586 0 0 1-.151-.595L6.2 14.7l-3.05-3.447a.584.584 0 0 1-.15-.4.569.569 0 0 1 .161-.389.5.5 0 0 1 .358-.162h4.205L9.6 6.272a.5.5 0 0 1 .7-.249.531.531 0 0 1 .227.245l1.873 4.047h4.206a.54.54 0 0 1 .511.552.573.573 0 0 1-.15.384L13.916 14.7l1.384 4.8a.567.567 0 0 1-.329.7.4.4 0 0 1-.154.018zm-.09-.533zm-9.334 0zm9.433-.115zm-4.766-2.428a.282.282 0 0 1 .129.031l4.482 2.327-1.382-4.783a.342.342 0 0 1 .075-.324l3.043-3.433h-4.189a.3.3 0 0 1-.269-.18L10.06 6.721l-1.89 4.048a.3.3 0 0 1-.269.18H3.712l3.043 3.441a.342.342 0 0 1 .069.324L5.448 19.5l4.481-2.319a.283.283 0 0 1 .131-.039zm6.7-6.113z" class="cls-1" data-name="Path 8347" transform="translate(-3 -5.963)"/>
    </g>
</svg>
