<svg xmlns="http://www.w3.org/2000/svg" id="text-with-icon-bkg" width="1397.267" height="691.526" viewBox="0 0 1397.267 691.526">
    <defs>
        <style>
            .cls-1,.cls-2{fill:#4f2b01}.cls-2{fill-rule:evenodd}
        </style>
    </defs>
    <g id="text-with-icon-bkg-2" data-name="text-with-icon-bkg">
        <path id="Path_57348" d="M1276.338 269.3a22.206 22.206 0 0 0-22.887-3.242 21.127 21.127 0 0 0-2.445 1.268 25.508 25.508 0 0 0-11.551 9.063c-7.117 10.036-4.882 23.913 4.188 31.974 8.055 7.158 22.021 9.175 29.736.817a21.7 21.7 0 0 0 11.426-15.9c1.62-8.958-1.305-18.197-8.467-23.98zM1243 289.223a2.57 2.57 0 1 1 2.57-2.57 2.57 2.57 0 0 1-2.57 2.57zm8.4 14.006a2.57 2.57 0 1 1 1.816-.751 2.57 2.57 0 0 1-1.816.751zm12.885-28.014a2.57 2.57 0 1 1 1.816-.751 2.57 2.57 0 0 1-1.816.751zm7.279 24.658a2.57 2.57 0 1 1 2.57-2.57 2.57 2.57 0 0 1-2.567 2.57z" class="cls-1" data-name="Path 57348" transform="translate(112.026 -216.957)"/>
        <path id="Path_57352" d="M353.984 316.654c-3.062-7.281-12.97-14.915-20.84-12.031-10.03 1.481-18.692 10.187-18.158 20.688a17.346 17.346 0 0 0 2.389 7.861c-.179 3.177.449 6.288 2.81 8.668a15.556 15.556 0 0 0 10.145 4.146c5.188 1.34 11.907-1.086 16.373-3.557 4.841-2.678 8.288-6.822 7.566-12.529a18.05 18.05 0 0 0-.284-13.246zm-30.345 8.809a2.57 2.57 0 1 1 2.57-2.57 2.57 2.57 0 0 1-2.57 2.57zm9.3 17.137a2.57 2.57 0 1 1 2.568-2.57 2.57 2.57 0 0 1-2.568 2.57zm2.244-25.212a2.57 2.57 0 1 1 2.57-2.57 2.57 2.57 0 0 1-2.575 2.57zM344 327.473a2.57 2.57 0 1 1 2.57-2.57 2.57 2.57 0 0 1-2.57 2.57z" class="cls-2" data-name="Path 57352" transform="translate(-265.541 -303.999)"/>
        <path id="Path_57348-2" d="M1276.338 269.3a22.206 22.206 0 0 0-22.887-3.242 21.127 21.127 0 0 0-2.445 1.268 25.508 25.508 0 0 0-11.551 9.063c-7.117 10.036-4.882 23.913 4.188 31.974 8.055 7.158 22.021 9.175 29.736.817a21.7 21.7 0 0 0 11.426-15.9c1.62-8.958-1.305-18.197-8.467-23.98zM1243 289.223a2.57 2.57 0 1 1 2.57-2.57 2.57 2.57 0 0 1-2.57 2.57zm8.4 14.006a2.57 2.57 0 1 1 1.816-.751 2.57 2.57 0 0 1-1.816.751zm12.885-28.014a2.57 2.57 0 1 1 1.816-.751 2.57 2.57 0 0 1-1.816.751zm7.279 24.658a2.57 2.57 0 1 1 2.57-2.57 2.57 2.57 0 0 1-2.567 2.57z" class="cls-1" data-name="Path 57348" transform="translate(-1159.974 -37.957)"/>
        <path id="Path_57354" d="M1451.69 1563.466c-3.972 0-5.106-4.39-3.417-6.917a4.192 4.192 0 0 1-2.3.631 4.005 4.005 0 0 1-4.122-3.61 10.718 10.718 0 0 0-2.189.456c-4.107 1.327-5.62 4.64-5.92 8.7a9.946 9.946 0 1 0 19.844.321 4.354 4.354 0 0 1-1.896.419zm-13.21-1.375a2.57 2.57 0 1 1 2.57-2.57 2.57 2.57 0 0 1-2.57 2.57zm6.674 8.635a2.57 2.57 0 1 1 2.57-2.57 2.57 2.57 0 0 1-2.57 2.57z" class="cls-2" data-name="Path 57354" transform="translate(-1278.998 -1208.942)"/>
        <path id="Path_57357" d="M4475.854 1570.615c-5.7-4.332-14.9-2.229-17.706 4.493-2.856 6.845 2.1 15.364 9.546 16.02 4.287.377 9.007-2.081 10.235-6.409a7.573 7.573 0 0 0 .211-1.053 9.373 9.373 0 0 0-2.286-13.051zm-12.924 8.035a2.57 2.57 0 1 1 2.57-2.57 2.57 2.57 0 0 1-2.57 2.57zm7.915 10.365a2.57 2.57 0 1 1 2.57-2.57 2.57 2.57 0 0 1-2.571 2.57zm5.14-11.486a2.57 2.57 0 1 1 2.57-2.57 2.57 2.57 0 0 1-2.571 2.57z" class="cls-2" data-name="Path 57357" transform="translate(-3192.812 -1344.127)"/>
        <path id="Path_57343" d="M335.622 3761.538a10.648 10.648 0 0 0-1.972 5.991c1.723 4.639 3.537 8.287 8.066 9.692 6.439 2 14.265-7.626 13-14.1-.823-4.229-3.3-5.507-6.914-6.873-7.412-2.788-8.989-.16-12.18 5.29zm7.243 5.815l.329 1.058a2.611 2.611 0 0 1-1.152 2.294 3.661 3.661 0 0 1-2.143-.176l-.823-1.41a2.129 2.129 0 0 1 .494-1.586c.334-.66.465-.755 1.317-.881.808-.313 1.413.26 1.979.7zm6.914-8.987l.658 1.234-.329 1.938a3.164 3.164 0 0 1-2.469.7l-1.152-1.233v-1.762l1.482-1.234z" class="cls-2" data-name="Path 57343" transform="translate(897.173 -3375.576)"/>
        <path id="Path_57358" d="M3409.929 342.514a8.577 8.577 0 0 0-1.708-2.079 14.348 14.348 0 0 0-2.745-3.7c-9.446-9.209-25.641-5.443-30.3 4.489a16.914 16.914 0 0 0-4.151 17.776 15.223 15.223 0 0 0 4.777 6.573 18.055 18.055 0 0 0 10.166 5.481 19.789 19.789 0 0 0 20.115-7.709 15.475 15.475 0 0 0 4.939-8.617c.684-3.783.966-8.715-1.093-12.214zm-27.549 8.557a2.57 2.57 0 1 1 2.57-2.571 2.57 2.57 0 0 1-2.57 2.57zm14.56 16.574a2.57 2.57 0 1 1 2.57-2.57 2.57 2.57 0 0 1-2.571 2.57zm.89-21.292a2.57 2.57 0 1 1 2.569-2.568 2.57 2.57 0 0 1-2.569 2.568z" class="cls-1" data-name="Path 57358" transform="translate(-3370.031 320.069)"/>
        <g id="Vector_Smart_Object" data-name="Vector Smart Object" transform="rotate(-81 1011.694 -523.265)">
            <g id="Vector_Smart_Object-2" data-name="Vector Smart Object">
                <path id="Path_99" d="M106.463 1569.987c-.672-7.511-9.331-12.056-16.079-8.995a9.853 9.853 0 0 0-2.954 2.062 4.537 4.537 0 0 1 1.922 2.337c.056.143.1.283.138.423a4.615 4.615 0 0 1 1.74 8.43 4.573 4.573 0 0 1 1.8 2.262 4.345 4.345 0 0 1-1.262 5.146 9.982 9.982 0 0 0 1.152.347c7.038 1.546 14.18-4.846 13.543-12.012zm-10.715-2.033a2.852 2.852 0 1 1 3.7 1.614 2.839 2.839 0 0 1-3.7-1.615z" class="cls-1" data-name="Path 99" transform="translate(-87.43 -1560.026)"/>
            </g>
            <path id="Color_Overlay" d="M5.488 21.974a10.134 10.134 0 0 1-1.151-.348A4.345 4.345 0 0 0 5.6 16.48a4.573 4.573 0 0 0-1.8-2.262 4.391 4.391 0 0 0 1.8-5.539 4.351 4.351 0 0 0-3.54-2.891c-.043-.14-.082-.28-.138-.423A4.535 4.535 0 0 0 0 3.028 9.844 9.844 0 0 1 2.955.966C9.7-2.1 18.361 2.449 19.033 9.96c.576 6.436-5.128 12.246-11.4 12.246a10.029 10.029 0 0 1-2.145-.232zm4.45-17.729a2.856 2.856 0 1 0 1.037-.2 2.84 2.84 0 0 0-1.037.2z" class="cls-1" data-name="Color Overlay"/>
        </g>
    </g>
</svg>
